<?xml version="1.0" encoding="utf-8"?>
<!-- Generator: Adobe Illustrator 21.0.2, SVG Export Plug-In . SVG Version: 6.00 Build 0)  -->
<svg version="1.1" id="Layer_1" xmlns="http://www.w3.org/2000/svg" xmlns:xlink="http://www.w3.org/1999/xlink" x="0px" y="0px"
	 viewBox="0 0 1000 688" style="enable-background:new 0 0 1000 688;" xml:space="preserve">
<style type="text/css">
	.st0{fill:#404041;}
</style>
<g>
	<path class="st0" d="M469.9,659.6h-4.3v-10.9c0-1.2-1-2.2-2.2-2.2h-10.9v-10.9c0-1.2-1-2.2-2.2-2.2h-23.9c-1.2,0-2.2,1-2.2,2.2
		v39.1c0,1.2,1,2.2,2.2,2.2h8.7c1.2,0,2.2-1,2.2-2.2v-3.3c0-0.6,0.5-1.1,1.1-1.1c0.6,0,1.1,0.5,1.1,1.1v3.3c0,1.2,1,2.2,2.2,2.2h8.7
		c1.2,0,2.2-1,2.2-2.2v-3.3c0-0.6,0.5-1.1,1.1-1.1c0.6,0,1.1,0.5,1.1,1.1v3.3c0,1.2,1,2.2,2.2,2.2h13c1.2,0,2.2-1,2.2-2.2v-13
		C472,660.6,471.1,659.6,469.9,659.6z M461.2,650.9v8.7H459v-1.1c0-3-2.4-5.4-5.4-5.4s-5.4,2.4-5.4,5.4v1.1h-4.3v-1.1
		c0-3-2.4-5.4-5.4-5.4c-3,0-5.4,2.4-5.4,5.4v1.1h-4.3v-8.7h6.5c1.2,0,2.2-1,2.2-2.2v-3.3c0-0.6,0.5-1.1,1.1-1.1
		c0.6,0,1.1,0.5,1.1,1.1v3.3c0,1.2,1,2.2,2.2,2.2H461.2z M428.6,637.9h19.6v8.7h-4.3v-1.1c0-3-2.4-5.4-5.4-5.4c-3,0-5.4,2.4-5.4,5.4
		v1.1h-4.3V637.9z M467.7,672.7H459v-1.1c0-3-2.4-5.4-5.4-5.4s-5.4,2.4-5.4,5.4v1.1h-4.3v-1.1c0-3-2.4-5.4-5.4-5.4
		c-3,0-5.4,2.4-5.4,5.4v1.1h-4.3V664h6.5c1.2,0,2.2-1,2.2-2.2v-3.3c0-0.6,0.5-1.1,1.1-1.1c0.6,0,1.1,0.5,1.1,1.1v3.3
		c0,1.2,1,2.2,2.2,2.2h8.7c1.2,0,2.2-1,2.2-2.2v-3.3c0-0.6,0.5-1.1,1.1-1.1c0.6,0,1.1,0.5,1.1,1.1v3.3c0,1.2,1,2.2,2.2,2.2h10.9
		V672.7z"/>
	<g>
		<path class="st0" d="M958.3,131.2h6.2l-4.3-4.3l14.3-14.3l7.8,7.8l-10.9,10.9h6.2l9.3-9.3c0.8-0.9,0.8-2.2,0-3.1l-10.9-10.9
			c-0.8-0.9-2.2-0.9-3.1,0l-17.4,17.4c-0.8,0.8-0.8,2.2,0,3.1L958.3,131.2z"/>
		<path class="st0" d="M987.4,133.4h-34.8c-1.2,0-2.2,1-2.2,2.2v21.7c0,1.2,1,2.2,2.2,2.2h34.8c1.2,0,2.2-1,2.2-2.2v-21.7
			C989.6,134.4,988.6,133.4,987.4,133.4z M985.3,155.1h-30.4v-17.4h30.4V155.1z"/>
		<polygon class="st0" points="967.9,153 972.2,153 972.2,148.6 976.6,148.6 976.6,144.3 972.2,144.3 972.2,139.9 967.9,139.9 
			967.9,144.3 963.5,144.3 963.5,148.6 967.9,148.6 		"/>
		<circle class="st0" cx="971.1" cy="123.6" r="3.3"/>
	</g>
	<path class="st0" d="M783,113.8h-26.1c-2.4,0-4.3,1.9-4.3,4.3v2.2h4.3v-2.2H783v4.3h-15.2v4.3H783v13h-26.1v-2.2h-4.3v2.2
		c0,2.4,2,4.3,4.3,4.3h13.9l-1.6,3.1c-0.4,0.7-1.1,1.2-1.9,1.2h-13.8l-5.2-5.2v-11.2l5.2-5.2h7.8v2.2c0,1.2-1,2.2-2.2,2.2h-4.3v4.3
		h4.3c3.6,0,6.5-2.9,6.5-6.5v-4.3c0-1.2-1-2.2-2.2-2.2h-10.9c-0.6,0-1.1,0.2-1.5,0.6l-4,4c-0.3-0.2-0.6-0.3-1-0.3h-8.7
		c-1.2,0-2.2,1-2.2,2.2v17.4c0,1.2,1,2.2,2.2,2.2h8.7c0.4,0,0.7-0.1,1-0.3l4,4c0.4,0.4,1,0.6,1.5,0.6h14.7c2.5,0,4.7-1.4,5.8-3.6
		l2.5-5.1h7.4c2.4,0,4.3-2,4.3-4.3v-21.7C787.4,115.8,785.4,113.8,783,113.8z M743.9,144.3h-4.3v-13h4.3V144.3z"/>
	<g>
		<circle class="st0" cx="874.4" cy="133.4" r="4.3"/>
		<path class="st0" d="M889.6,120.3h-3.1l-5.9-9.8c-0.3-0.5-0.8-0.9-1.4-1c-0.6-0.1-1.2,0-1.7,0.4l-14.7,10.5h7.5l7.8-5.6l3.3,5.6
			h-9.2v4.3h15.2v17.4h-26.1v-4.3H857v6.5c0,1.2,1,2.2,2.2,2.2h15l-0.5,1c-0.4,0.7-1.1,1.2-1.9,1.2h-13.8l-5.2-5.2v-11.2l5.2-5.2
			h7.8v2.2c0,1.2-1,2.2-2.2,2.2h-4.3v4.3h4.3c3.6,0,6.5-2.9,6.5-6.5v-4.3c0-1.2-1-2.2-2.2-2.2H857c-0.6,0-1.1,0.2-1.5,0.6l-4,4
			c-0.3-0.2-0.6-0.3-1-0.3h-8.7c-1.2,0-2.2,1-2.2,2.2v17.4c0,1.2,1,2.2,2.2,2.2h8.7c0.4,0,0.7-0.1,1-0.3l4,4c0.4,0.4,1,0.6,1.5,0.6
			h14.7c2.5,0,4.7-1.4,5.8-3.6l1.5-2.9h10.6c1.2,0,2.2-1,2.2-2.2v-21.7C891.8,121.3,890.8,120.3,889.6,120.3z M848.3,144.3h-4.3v-13
			h4.3V144.3z"/>
	</g>
	<g>
		<path class="st0" d="M663.4,113.8v2.3c-2.5,0.5-4.3,2.7-4.3,5.3c0,3,2.4,5.4,5.4,5.4h2.2c0.6,0,1.1,0.5,1.1,1.1
			c0,0.6-0.5,1.1-1.1,1.1h-3.3v6.5h4.3v-2.3c2.5-0.5,4.3-2.7,4.3-5.3c0-3-2.4-5.4-5.4-5.4h-2.2c-0.6,0-1.1-0.5-1.1-1.1
			c0-0.6,0.5-1.1,1.1-1.1h7.6V116h-4.3v-2.2H663.4z"/>
		<path class="st0" d="M672.1,146.4c0,1.2-1,2.2-2.2,2.2h-10.9v4.3h8.7c0,1.2-1,2.2-2.2,2.2h-16.5l-5.2-5.2v-11.2l5.2-5.2h7.8v2.2
			c0,1.2-1,2.2-2.2,2.2h-4.3v4.3h4.3c3.6,0,6.5-2.9,6.5-6.5v-4.3c0-1.2-1-2.2-2.2-2.2h-10.9c-0.6,0-1.1,0.2-1.5,0.6l-4,4
			c-0.3-0.2-0.6-0.3-1-0.3H633c-1.2,0-2.2,1-2.2,2.2V153c0,1.2,1,2.2,2.2,2.2h8.7c0.4,0,0.7-0.1,1-0.3l4,4c0.4,0.4,1,0.6,1.5,0.6
			h17.4c3.6,0,6.5-2.9,6.5-6.5v-0.4c2.5-0.9,4.3-3.3,4.3-6.1v-2.2h-4.3V146.4z M639.5,150.8h-4.3v-13h4.3V150.8z"/>
		<path class="st0" d="M665.6,107.3c-9.6,0-17.4,7.8-17.4,17.4c0,0.7,0.1,1.5,0.2,2.2h4.4c-0.1-0.7-0.2-1.4-0.2-2.2
			c0-7.2,5.9-13,13-13c7.2,0,13,5.9,13,13c0,7.2-5.9,13-13,13c-0.7,0-1.5-0.1-2.2-0.2v4.4c0.7,0.1,1.4,0.1,2.2,0.1
			c9.6,0,17.4-7.8,17.4-17.4C683,115.1,675.2,107.3,665.6,107.3z"/>
	</g>
	<g>
		<path class="st0" d="M554.7,118.8v-9.3c0-0.7-0.3-1.4-0.9-1.8c-0.6-0.4-1.3-0.5-2-0.3l-5.7,1.9l-3.5-1.8c-0.6-0.3-1.3-0.3-1.9,0
			l-3.5,1.8l-5.7-1.9c-0.7-0.2-1.4-0.1-2,0.3c-0.6,0.4-0.9,1.1-0.9,1.8v9.3c-1.3,0.8-2.2,2.1-2.2,3.7v32.6c0,2.4,2,4.3,4.3,4.3h21.7
			c2.4,0,4.3-2,4.3-4.3v-32.6C556.9,120.9,556,119.5,554.7,118.8z M536.6,113.7c0.5,0.2,1.1,0.1,1.7-0.1l3.4-1.7l3.4,1.7
			c0.5,0.3,1.1,0.3,1.7,0.1l3.7-1.2v5.7h-17.4v-5.7L536.6,113.7z M552.5,155.1h-21.7v-32.6h21.7L552.5,155.1z"/>
		<rect x="532.9" y="124.7" class="st0" width="17.4" height="8.7"/>
		<circle class="st0" cx="535.1" cy="137.7" r="2.2"/>
		<circle class="st0" cx="548.2" cy="137.7" r="2.2"/>
		<circle class="st0" cx="541.6" cy="137.7" r="2.2"/>
		<circle class="st0" cx="535.1" cy="144.3" r="2.2"/>
		<circle class="st0" cx="548.2" cy="144.3" r="2.2"/>
		<circle class="st0" cx="541.6" cy="144.3" r="2.2"/>
		<circle class="st0" cx="535.1" cy="150.8" r="2.2"/>
		<circle class="st0" cx="548.2" cy="150.8" r="2.2"/>
		<circle class="st0" cx="541.6" cy="150.8" r="2.2"/>
		<path class="st0" d="M576.4,124.7h-15.2c-1.2,0-2.2,1-2.2,2.2v21.7c0,1.2,1,2.2,2.2,2.2h15.2c1.2,0,2.2-1,2.2-2.2v-21.7
			C578.6,125.7,577.6,124.7,576.4,124.7z M563.4,129h2.2v17.4h-2.2V129z M574.3,146.4h-4.3V129h4.3V146.4z"/>
	</g>
	<path class="st0" d="M885.2,320.4h-39.1c-2.4,0-4.3,2-4.3,4.3v34.8c0,2.4,2,4.3,4.3,4.3h39.1c2.4,0,4.3-1.9,4.3-4.3v-34.8
		C889.6,322.4,887.6,320.4,885.2,320.4z M885.2,329.1h-17.4v-4.3h17.4L885.2,329.1z M857,329.1v-4.3h6.5v4.3H857z M852.6,324.8v4.3
		h-6.5v-4.3H852.6z M846.1,359.5v-26.1h39.1l0,26.1H846.1z"/>
	<g>
		<path class="st0" d="M989.6,320.4h-39.1c-2.4,0-4.3,2-4.3,4.3v34.8c0,2.4,2,4.3,4.3,4.3h39.1c2.4,0,4.3-1.9,4.3-4.3v-34.8
			C994,322.4,992,320.4,989.6,320.4z M989.6,329.1h-17.4v-4.3h17.4L989.6,329.1z M961.3,329.1v-4.3h6.5v4.3H961.3z M957,324.8v4.3
			h-6.5v-4.3H957z M950.5,359.5v-26.1h39.1l0,26.1H950.5z"/>
		<rect x="972.2" y="348.7" class="st0" width="10.9" height="4.3"/>
		<polygon class="st0" points="957.6,341.5 962.6,346.5 957.6,351.5 960.7,354.6 968.8,346.5 960.7,338.4 		"/>
	</g>
	<g>
		<circle class="st0" cx="437.3" cy="337.8" r="4.3"/>
		<circle class="st0" cx="448.1" cy="337.8" r="4.3"/>
		<path class="st0" d="M465.5,326.9h-34.8c-2.4,0-4.3,2-4.3,4.3v13c0,2.4,2,4.3,4.3,4.3h17.4v-4.3h-17.4v-13h34.8l0,10.9h4.4v-10.9
			C469.9,328.9,467.9,326.9,465.5,326.9z"/>
		<path class="st0" d="M456.8,354.3l-4.3-4.3l-3.1,3.1l5.9,5.9c0.4,0.4,1,0.6,1.5,0.6c0.6,0,1.1-0.2,1.5-0.6l10.2-10.2l-3.1-3.1
			L456.8,354.3z"/>
	</g>
	<g>
		<circle class="st0" cx="541.6" cy="337.8" r="4.3"/>
		<circle class="st0" cx="552.5" cy="337.8" r="4.3"/>
		<path class="st0" d="M569.9,326.9h-34.8c-2.4,0-4.3,2-4.3,4.3v13c0,2.4,2,4.3,4.3,4.3h19.6v-4.3h-19.6v-13h34.8l0,10.9h4.4v-10.9
			C574.3,328.9,572.3,326.9,569.9,326.9z"/>
		<polygon class="st0" points="569.9,345.6 565.6,349.9 561.2,345.6 558.1,348.7 562.5,353 558.1,357.4 561.2,360.4 565.6,356.1 
			569.9,360.4 573,357.4 568.6,353 573,348.7 		"/>
	</g>
	<g>
		<circle class="st0" cx="646" cy="337.8" r="4.3"/>
		<path class="st0" d="M674.3,326.9h-34.8c-2.4,0-4.3,2-4.3,4.3v13c0,2.4,2,4.3,4.3,4.3h19.6v-4.3h-19.6v-13h34.8l0,4.3h4.4v-4.3
			C678.6,328.9,676.7,326.9,674.3,326.9z"/>
		<path class="st0" d="M676.5,346.5v-1.1c0-3-2.4-5.4-5.4-5.4c-3,0-5.4,2.4-5.4,5.4v1.1c-1.2,0-2.2,1-2.2,2.2v10.9
			c0,1.2,1,2.2,2.2,2.2h10.9c1.2,0,2.2-1,2.2-2.2v-10.9C678.6,347.5,677.7,346.5,676.5,346.5z M669.9,345.4c0-0.6,0.5-1.1,1.1-1.1
			s1.1,0.5,1.1,1.1v1.1h-2.2V345.4z M674.3,357.4h-6.5v-6.5h6.5V357.4z"/>
		<circle class="st0" cx="656.9" cy="337.8" r="4.3"/>
	</g>
	<g>
		<path class="st0" d="M776.5,337.8h-30.4c-1.2,0-2.2,1-2.2,2.2v15.2h4.3v-13h2.2v13c0,1.2,1,2.2,2.2,2.2h2.2v6.5h4.3v-6.5h4.3v6.5
			h4.3v-6.5h2.2c1.2,0,2.2-1,2.2-2.2v-13h2.2v13h4.3V340C778.7,338.8,777.7,337.8,776.5,337.8z M767.8,353h-13v-10.9h13V353z"/>
		<path class="st0" d="M750.4,333.4c0,1.2,1,2.2,2.2,2.2H770c1.2,0,2.2-1,2.2-2.2c0-2.2-0.7-4.3-1.8-6l3.3-3.4l-3.1-3.1l-3.3,3.3
			c-1.7-1.1-3.8-1.8-6-1.8c-2.2,0-4.3,0.7-6,1.8l-3.3-3.3l-3.1,3.1l3.3,3.4C751.1,329.2,750.4,331.2,750.4,333.4z M761.3,326.9
			c2.8,0,5.3,1.8,6.2,4.3h-12.3C756,328.7,758.4,326.9,761.3,326.9z"/>
	</g>
	<g>
		<path class="st0" d="M55.1,222.6l-23.9-6.5c-0.4-0.1-0.8-0.1-1.1,0l-23.9,6.5c-0.9,0.3-1.6,1.1-1.6,2.1v4.3c0,1.2,1,2.2,2.2,2.2
			v28.3H11v-28.3h39.1v28.3h4.3v-28.3c1.2,0,2.2-1,2.2-2.2v-4.3C56.7,223.7,56,222.9,55.1,222.6z M8.8,226.4l21.7-5.9l21.7,5.9v0.5
			H8.8V226.4z"/>
		<path class="st0" d="M43.6,244.3h-4.3v-8.7c0-1.2-1-2.2-2.2-2.2h-13c-1.2,0-2.2,1-2.2,2.2v8.7h-4.3c-1.2,0-2.2,1-2.2,2.2v10.9
			c0,1.2,1,2.2,2.2,2.2h26.1c1.2,0,2.2-1,2.2-2.2v-10.9C45.8,245.3,44.8,244.3,43.6,244.3z M26.2,237.8h2.2v4.3h4.3v-4.3h2.2v6.5
			h-8.7V237.8z M19.7,248.6h2.2v4.3h4.3v-4.3h2.2v6.5h-8.7V248.6z M41.5,255.2h-8.7v-6.5h2.2v4.3h4.3v-4.3h2.2V255.2z"/>
	</g>
	<g>
		<path class="st0" d="M261.1,231.2c0-0.3-0.1-0.5-0.1-0.7c0-0.1-0.1-0.1-0.1-0.2c0-0.1-0.1-0.2-0.1-0.3l-8.7-13
			c-0.4-0.6-1.1-1-1.8-1h-21.7c-0.7,0-1.4,0.4-1.8,1l-8.7,13c-0.1,0.1-0.1,0.2-0.1,0.3c0,0.1-0.1,0.1-0.1,0.2
			c-0.1,0.2-0.1,0.5-0.1,0.7c0,0,0,0,0,0v26.1c0,1.2,1,2.2,2.2,2.2h39.1c1.2,0,2.2-1,2.2-2.2L261.1,231.2
			C261.1,231.2,261.1,231.2,261.1,231.2z M254.9,229.1h-13.3v-8.7h7.5L254.9,229.1z M229.7,220.4h7.5v8.7h-13.3L229.7,220.4z
			 M256.8,255.2H222v-21.7h34.8V255.2z"/>
	</g>
	<g>
		<path class="st0" d="M156.7,211.7h-30.4c-2.4,0-4.3,2-4.3,4.3v19.6h4.3V216h6.5v13c0,0.9,0.5,1.7,1.3,2c0.8,0.3,1.7,0.1,2.4-0.5
			l5-5l5,5c0.4,0.4,1,0.6,1.5,0.6c0.3,0,0.6-0.1,0.8-0.2c0.8-0.3,1.3-1.1,1.3-2v-13h6.5l0,26.1h-15.2v4.3h15.2c2.4,0,4.3-2,4.3-4.3
			V216C161.1,213.6,159.1,211.7,156.7,211.7z M145.9,223.8L143,221c-0.4-0.4-1-0.6-1.5-0.6s-1.1,0.2-1.5,0.6l-2.8,2.8V216h8.7V223.8
			z"/>
		<path class="st0" d="M152.4,248.6h-16.5l0.6-0.6c0.7-0.7,0.8-1.7,0.4-2.5l-2.2-4.3c-0.5-1-1.6-1.4-2.6-1.1l-10.3,3.4
			c-0.3-0.8-1.1-1.4-2-1.4h-8.7c-1.2,0-2.2,1-2.2,2.2v17.4c0,1.2,1,2.2,2.2,2.2h8.7c1.2,0,2.2-1,2.2-2.2h23.9c0.7,0,1.3-0.3,1.7-0.9
			l6.5-8.7c0.5-0.7,0.6-1.5,0.2-2.3C154,249.1,153.2,248.6,152.4,248.6z M113.2,259.5v-13h4.3v13H113.2z M144.8,257.3h-22.8V248
			l9.8-3.3l0.6,1.3l-3.2,3.2c-0.4,0.4-0.6,1-0.6,1.5h0v2.2H148L144.8,257.3z"/>
	</g>
	<g>
		<path class="st0" d="M322,229.1h34.8v13h4.3v-15.2c0,0,0,0,0,0c0-0.3-0.1-0.5-0.1-0.7c0-0.1-0.1-0.1-0.1-0.2
			c0-0.1-0.1-0.2-0.1-0.3l-8.7-13c-0.4-0.6-1.1-1-1.8-1h-21.7c-0.7,0-1.4,0.4-1.8,1l-8.7,13c-0.1,0.1-0.1,0.2-0.1,0.3
			c0,0.1-0.1,0.1-0.1,0.2c-0.1,0.2-0.1,0.5-0.1,0.7c0,0,0,0,0,0V253c0,1.2,1,2.2,2.2,2.2h28.3v-4.3H322V229.1z M354.9,224.7h-13.3
			V216h7.5L354.9,224.7z M329.7,216h7.5v8.7h-13.3L329.7,216z"/>
		<polygon class="st0" points="369.8,253 363.3,253 363.3,246.5 359,246.5 359,253 352.4,253 352.4,257.3 359,257.3 359,263.9 
			363.3,263.9 363.3,257.3 369.8,257.3 		"/>
	</g>
	<g>
		<path class="st0" d="M426.4,229.1h34.8v19.6h4.3v-21.7c0,0,0,0,0,0c0-0.3-0.1-0.5-0.1-0.7c0-0.1-0.1-0.1-0.1-0.2
			c0-0.1-0.1-0.2-0.1-0.3l-8.7-13c-0.4-0.6-1.1-1-1.8-1h-21.7c-0.7,0-1.4,0.4-1.8,1l-8.7,13c-0.1,0.1-0.1,0.2-0.1,0.3
			c0,0.1-0.1,0.1-0.1,0.2c-0.1,0.2-0.1,0.5-0.1,0.7c0,0,0,0,0,0V253c0,1.2,1,2.2,2.2,2.2h30.4v-4.3h-28.3V229.1z M459.3,224.7H446
			V216h7.5L459.3,224.7z M434.1,216h7.5v8.7h-13.3L434.1,216z"/>
		<rect x="459" y="253" class="st0" width="13" height="4.3"/>
	</g>
	<g>
		<path class="st0" d="M530.8,229.1h34.8v15.2h4.3v-17.4c0,0,0,0,0,0c0-0.3-0.1-0.5-0.1-0.7c0-0.1-0.1-0.1-0.1-0.2
			c0-0.1-0.1-0.2-0.1-0.3l-8.7-13c-0.4-0.6-1.1-1-1.8-1h-21.7c-0.7,0-1.4,0.4-1.8,1l-8.7,13c-0.1,0.1-0.1,0.2-0.1,0.3
			c0,0.1-0.1,0.1-0.1,0.2c-0.1,0.2-0.1,0.5-0.1,0.7c0,0,0,0,0,0V253c0,1.2,1,2.2,2.2,2.2h26.1v-4.3h-23.9V229.1z M563.7,224.7h-13.3
			V216h7.5L563.7,224.7z M538.5,216h7.5v8.7h-13.3L538.5,216z"/>
		<polygon class="st0" points="574.9,247.1 565.6,256.4 560.6,251.4 557.5,254.5 565.6,262.6 578,250.2 		"/>
	</g>
	<g>
		<path class="st0" d="M678.6,222.5c0-3.6-2.9-6.5-6.5-6.5c-3.6,0-6.5,2.9-6.5,6.5c0,3.6,2.9,6.5,6.5,6.5
			C675.7,229.1,678.6,226.1,678.6,222.5z M672.1,224.7c-1.2,0-2.2-1-2.2-2.2c0-1.2,1-2.2,2.2-2.2c1.2,0,2.2,1,2.2,2.2
			C674.3,223.7,673.3,224.7,672.1,224.7z"/>
		<path class="st0" d="M672.1,229.1c-6,0-10.9,4.9-10.9,10.9v6.5c0,1.2,1,2.2,2.2,2.2h2.2v8.7c0,1.2,1,2.2,2.2,2.2h8.7
			c1.2,0,2.2-1,2.2-2.2v-8.7h2.2c1.2,0,2.2-1,2.2-2.2v-6.5C683,233.9,678.1,229.1,672.1,229.1z M678.6,244.3h-2.2
			c-1.2,0-2.2,1-2.2,2.2v8.7h-4.3v-8.7c0-1.2-1-2.2-2.2-2.2h-2.2v-4.3c0-3.6,2.9-6.5,6.5-6.5c3.6,0,6.5,2.9,6.5,6.5V244.3z"/>
		<path class="st0" d="M643.8,246.5c1.2,0,2.2-1,2.2-2.2v-13c0-1.2-1-2.2-2.2-2.2H633c-1.2,0-2.2,1-2.2,2.2v13c0,1.2,1,2.2,2.2,2.2
			H643.8z M635.1,233.4h6.5v8.7h-6.5V233.4z"/>
		<circle class="st0" cx="652.5" cy="255.2" r="4.3"/>
		<path class="st0" d="M650.4,224.5l-2,24.1H633v4.3h13.4c0.9-2.5,3.3-4.3,6.1-4.3c0.1,0,0.1,0,0.2,0l1.8-21.8h4.5v-4.3h-6.5
			C651.4,222.5,650.5,223.4,650.4,224.5z"/>
	</g>
	<path class="st0" d="M51.1,44.7L39.3,30.4V16h2.2c1.2,0,2.2-1,2.2-2.2V7.3c0-1.2-1-2.2-2.2-2.2H19.7c-1.2,0-2.2,1-2.2,2.2v6.5
		c0,1.2,1,2.2,2.2,2.2h2.2v14.4L10,44.8c-1.4,2-1.6,4.6-0.4,6.8c1.1,2.2,3.3,3.5,5.8,3.5h30.4c2.4,0,4.7-1.3,5.8-3.5
		C52.7,49.4,52.6,46.8,51.1,44.7z M21.9,9.4h17.4v2.2H21.9V9.4z M25.8,32.6c0.3-0.4,0.5-0.9,0.5-1.4V16h8.7v2.2h-4.3v4.3h4.3v2.2
		h-6.5V29h6.5v2.2c0,0.5,0.2,1,0.5,1.4l4.2,5.1H21.5L25.8,32.6z M47.7,49.6c-0.4,0.7-1.1,1.2-1.9,1.2H15.4c-0.8,0-1.6-0.4-1.9-1.2
		c-0.4-0.7-0.3-1.6,0-2.1l4.5-5.4h25.3l4.3,5.3C48.1,48,48.1,48.9,47.7,49.6z"/>
	<g>
		<path class="st0" d="M157.7,18.4L136,7.5c-0.6-0.3-1.3-0.3-1.9,0l-21.7,10.9c-0.4,0.2-0.8,0.6-1,1c-0.1,0.3-0.2,0.7-0.2,0.9v12.5
			c0,1.2,1,2.2,2.2,2.2s2.2-1,2.2-2.2v-9.3l4.3,1.7v10.7c0,0.8,0.5,1.6,1.2,1.9c3.7,1.9,7.6,4.2,14,4.2s10.3-2.3,14-4.2
			c0.7-0.4,1.2-1.1,1.2-1.9V25.3l7.3-2.9c0.8-0.3,1.3-1.1,1.4-1.9C158.9,19.5,158.5,18.7,157.7,18.4z M145.9,34.6l-2.1,1.1
			c-5.5,2.7-12,2.7-17.5,0l-2.1-1.1V27l10.1,4c0.3,0.1,0.5,0.2,0.8,0.2s0.5,0,0.8-0.2l10.1-4V34.6z M135,26.7l-16.4-6.6l16.4-8.2
			l16.4,8.2L135,26.7z"/>
		<path class="st0" d="M113.2,37.7c-1.2,0-2.2,1-2.2,2.2v4.3c0,1.2,1,2.2,2.2,2.2s2.2-1,2.2-2.2v-4.3
			C115.4,38.7,114.4,37.7,113.2,37.7z"/>
	</g>
	<g>
		<path class="st0" d="M363.3,7.3h-19.6c-3.6,0-6.5,2.9-6.5,6.5v21.7h-8.7c-8.2,0-10.7,12.1-10.8,12.6c-0.1,0.6,0,1.3,0.5,1.8
			c0.4,0.5,1,0.8,1.7,0.8h17.4c1.2,0,2.2-1,2.2-2.2h15.2c3.6,0,6.5-2.9,6.5-6.5V22.5h6.5c1.2,0,2.2-1,2.2-2.2v-6.5
			C369.8,10.2,366.9,7.3,363.3,7.3z M335.2,46.4h-12.5c1-2.9,3-6.5,5.8-6.5h9.1C336.2,41.9,335.5,44.3,335.2,46.4z M345.9,39.9
			c1,0,2.2,1.2,2.2,2.2c0,0.8,0.2,1.5,0.4,2.2h-8.3C341,42,342.6,39.9,345.9,39.9z M356.8,42c0,1.2-1,2.2-2.2,2.2
			c-1.2,0-2.2-1.2-2.2-2.2c0-3.4-3.2-6.5-6.5-6.5h-4.3V13.8c0-1.2,1-2.2,2.2-2.2h13.4c-0.2,0.7-0.4,1.4-0.4,2.2V42z M365.5,18.1
			h-4.3v-4.3c0-1.2,1-2.2,2.2-2.2s2.2,1,2.2,2.2V18.1z"/>
		<rect x="343.7" y="16" class="st0" width="10.9" height="4.3"/>
		<rect x="343.7" y="22.5" class="st0" width="10.9" height="4.3"/>
		<rect x="343.7" y="29" class="st0" width="10.9" height="4.3"/>
	</g>
	<path class="st0" d="M574.3,24.7h-7.4l-8.1-14.1l-3.8,2.2l6.8,12h-18.6l6.8-12l-3.8-2.2l-8.1,14.1h-7.4V29h2.6l4,17.9
		c0.2,1,1.1,1.7,2.1,1.7h26.1c1,0,1.9-0.7,2.1-1.7l4-17.9h2.6V24.7z M563.8,44.2h-22.6L537.8,29h29.4L563.8,44.2z"/>
	<g>
		<path class="st0" d="M469.9,24.7h-7.4l-8.1-14.1l-3.8,2.2l6.8,12h-18.6l6.8-12l-3.8-2.2l-8.1,14.1h-7.4V29h2.6l4,17.9
			c0.2,1,1.1,1.7,2.1,1.7h26.1c1,0,1.9-0.7,2.1-1.7l4-17.9h2.6V24.7z M459.4,44.2h-22.6L433.4,29h29.4L459.4,44.2z"/>
		<rect x="446" y="31.2" class="st0" width="4.3" height="10.9"/>
		<rect x="452.5" y="31.2" class="st0" width="4.3" height="10.9"/>
		<rect x="439.4" y="31.2" class="st0" width="4.3" height="10.9"/>
	</g>
	<g>
		<path class="st0" d="M669.3,33.3l2.4-10.9h2.6v-4.3h-7.4L658.8,4L655,6.2l6.8,12h-18.6l6.8-12L646.3,4l-8.1,14.1h-7.4v4.3h2.6
			l4,17.9c0.2,1,1.1,1.7,2.1,1.7h19.6v-4.3h-17.8l-3.4-15.2h29.4l-2.4,10.9H669.3z"/>
		<polygon class="st0" points="683,44.2 676.5,44.2 676.5,37.7 672.1,37.7 672.1,44.2 665.6,44.2 665.6,48.6 672.1,48.6 672.1,55.1 
			676.5,55.1 676.5,48.6 683,48.6 		"/>
	</g>
	<g>
		<path class="st0" d="M778.7,22.5v-4.3h-7.4L763.2,4l-3.8,2.2l6.8,12h-18.6l6.8-12L750.7,4l-8.1,14.1h-7.4v4.3h2.6l4,17.9
			c0.2,1,1.1,1.7,2.1,1.7H770c1,0,1.9-0.7,2.1-1.7l4-17.9H778.7z M768.2,37.7h-22.6l-3.4-15.2h29.4L768.2,37.7z"/>
		<rect x="772.1" y="44.2" class="st0" width="13" height="4.3"/>
	</g>
	<g>
		<path class="st0" d="M846.6,22.5H876l-2.9,13h4.5l2.9-13h2.6v-4.3h-7.4L867.5,4l-3.8,2.2l6.8,12H852l6.8-12L855.1,4L847,18.1h-7.4
			v4.3h2.6l4,17.9c0.2,1,1.1,1.7,2.1,1.7h19.6v-4.3H850L846.6,22.5z"/>
		<polygon class="st0" points="888,38.3 878.7,47.7 873.7,42.7 870.6,45.8 878.7,53.8 891.1,41.4 		"/>
	</g>
	<g>
		<path class="st0" d="M981.9,35.5l2.9-13h2.6v-4.3H980L971.9,4l-3.8,2.2l6.8,12h-18.6l6.8-12L959.5,4l-8.1,14.1h-7.4v4.3h2.6
			l4,17.9c0.2,1,1.1,1.7,2.1,1.7h23.9v-4.3h-22.2L951,22.5h29.4l-2.9,13H981.9z"/>
		<polygon class="st0" points="995.5,41.4 992.4,38.3 987.4,43.3 982.5,38.3 979.4,41.4 984.4,46.4 979.4,51.4 982.5,54.5 
			987.4,49.5 992.4,54.5 995.5,51.4 990.5,46.4 		"/>
	</g>
	<g>
		<path class="st0" d="M258.9,39.9h-0.2l-2-17.6c-0.1-1.1-1.1-1.9-2.2-1.9h-4.3v-2.2h4.3c1.2,0,2.2-1,2.2-2.2V9.4
			c0-1.2-1-2.2-2.2-2.2h-13c-1.2,0-2.2,1-2.2,2.2V16c0,1.2,1,2.2,2.2,2.2h4.3v2.2h-8.7v-8.7c0-0.8-0.4-1.5-1-1.8
			c-0.6-0.4-1.4-0.4-2.1-0.1l-3.4,1.7l-3.4-1.7c-0.7-0.3-1.5-0.3-2.1,0.1c-0.6,0.4-1,1.1-1,1.8v8.7c-1.1,0-2,0.8-2.2,1.9l-2,17.6
			h-0.2c-1.2,0-2.2,1-2.2,2.2v8.7c0,1.2,1,2.2,2.2,2.2h39.1c1.2,0,2.2-1,2.2-2.2V42C261.1,40.8,260.1,39.9,258.9,39.9z M243.7,13.8
			v-2.2h8.7v2.2H243.7z M228.5,15.1l1.2,0.6c0.6,0.3,1.3,0.3,1.9,0l1.2-0.6v5.2h-4.3V15.1z M226.1,24.7h0.2h26.3l1.7,15.2h-29.9
			L226.1,24.7z M256.8,48.6H222v-4.3h34.8V48.6z"/>
		<rect x="228.5" y="26.8" class="st0" width="8.7" height="4.3"/>
		<circle class="st0" cx="241.5" cy="29" r="2.2"/>
		<circle class="st0" cx="248.1" cy="29" r="2.2"/>
		<circle class="st0" cx="241.5" cy="35.5" r="2.2"/>
		<circle class="st0" cx="248.1" cy="35.5" r="2.2"/>
	</g>
	<g>
		<path class="st0" d="M152.4,111.6h-34.8c-2.4,0-4.3,2-4.3,4.3v34.8c0,2.4,2,4.3,4.3,4.3v2.2h4.3v-2.2H148v2.2h4.3v-2.2
			c2.4,0,4.3-2,4.3-4.3V116C156.7,113.6,154.8,111.6,152.4,111.6z M152.4,150.8h-34.8V116h34.8L152.4,150.8z"/>
		<path class="st0" d="M121.9,146.4c0,1.2,1,2.2,2.2,2.2H148c1.2,0,2.2-1,2.2-2.2v-26.1c0-1.2-1-2.2-2.2-2.2h-23.9
			c-1.2,0-2.2,1-2.2,2.2v4.3h-2.2v4.3h2.2v8.7h-2.2v4.3h2.2V146.4z M126.3,129h2.2v-4.3h-2.2v-2.2h19.6v21.7h-19.6v-2.2h2.2v-4.3
			h-2.2V129z"/>
		<path class="st0" d="M137.2,139.9c3.6,0,6.5-2.9,6.5-6.5c0-3.6-2.9-6.5-6.5-6.5c-3.6,0-6.5,2.9-6.5,6.5
			C130.6,137,133.6,139.9,137.2,139.9z M137.2,131.2c1.2,0,2.2,1,2.2,2.2c0,1.2-1,2.2-2.2,2.2c-1.2,0-2.2-1-2.2-2.2
			C135,132.2,136,131.2,137.2,131.2z"/>
	</g>
	<g>
		<path class="st0" d="M363.3,118.2h-39.1c-1.2,0-2.2,1-2.2,2.2v26.1c0,1.2,1,2.2,2.2,2.2h39.1c1.2,0,2.2-1,2.2-2.2v-26.1
			C365.5,119.1,364.5,118.2,363.3,118.2z M361.1,130.3l-7.8-7.8h7.8V130.3z M326.3,136.5l7.8,7.8h-7.8V136.5z M340.3,144.3
			l-13.9-13.9v-7.8h20.8l13.9,13.9v7.8H340.3z"/>
		<path class="st0" d="M343.7,124.7c-4.8,0-8.7,3.9-8.7,8.7c0,4.8,3.9,8.7,8.7,8.7s8.7-3.9,8.7-8.7
			C352.4,128.6,348.5,124.7,343.7,124.7z M343.7,137.7c-2.4,0-4.3-2-4.3-4.3c0-2.4,2-4.3,4.3-4.3s4.3,2,4.3,4.3
			C348.1,135.8,346.1,137.7,343.7,137.7z"/>
	</g>
	<path class="st0" d="M465.5,111.6h-34.8c-2.4,0-4.3,2-4.3,4.3v21.7c0,2.4,2,4.3,4.3,4.3h12.1l-13,13h6.2l10-10v10h4.3v-10l10,10
		h6.2l-13-13h12.1c2.4,0,4.3-2,4.3-4.3V116C469.9,113.6,467.9,111.6,465.5,111.6z M465.5,116l0,4.3h-34.8V116H465.5z M430.7,137.7
		v-13h34.8l0,13H430.7z"/>
	<g>
		<path class="st0" d="M48,120.3v-2.2h-4.3v2.2h-4.3V116c0-1.2-1-2.2-2.2-2.2h-13c-1.2,0-2.2,1-2.2,2.2v4.3h-4.3v-2.2h-4.3v2.2
			c-2.4,0-4.3,2-4.3,4.3v26.1c0,2.4,2,4.3,4.3,4.3H48c2.4,0,4.3-2,4.3-4.3v-26.1C52.3,122.3,50.4,120.3,48,120.3z M26.2,118.2h8.7
			v2.2h-8.7V118.2z M48,150.8H13.2v-26.1H48V150.8z"/>
		<path class="st0" d="M32.8,126.9h-4.3v2.3c-2.5,0.5-4.3,2.7-4.3,5.3c0,3,2.4,5.4,5.4,5.4h2.2c0.6,0,1.1,0.5,1.1,1.1
			c0,0.6-0.5,1.1-1.1,1.1h-7.6v4.3h4.3v2.2h4.3v-2.3c2.5-0.5,4.3-2.7,4.3-5.3c0-3-2.4-5.4-5.4-5.4h-2.2c-0.6,0-1.1-0.5-1.1-1.1
			c0-0.6,0.5-1.1,1.1-1.1h7.6V129h-4.3V126.9z"/>
	</g>
	<g>
		<path class="st0" d="M265.4,152.4l-4.3-15.2c-0.3-0.9-1.1-1.6-2.1-1.6h-13c-1,0-1.8,0.6-2.1,1.6l-4.3,15.2
			c-0.2,0.7-0.1,1.4,0.4,1.9c0.4,0.5,1.1,0.9,1.7,0.9h21.7c0.7,0,1.3-0.3,1.7-0.9C265.4,153.7,265.6,153,265.4,152.4z M244.4,150.8
			l3.1-10.9h9.8l3.1,10.9H244.4z"/>
		<path class="st0" d="M234.9,137.1c-0.3-0.9-1.1-1.6-2.1-1.6h-13c-1,0-1.8,0.6-2.1,1.6l-4.3,15.2c-0.2,0.7-0.1,1.4,0.4,1.9
			c0.4,0.5,1.1,0.9,1.7,0.9h21.7c0.7,0,1.3-0.3,1.7-0.9c0.4-0.5,0.5-1.3,0.4-1.9L234.9,137.1z M218.3,150.8l3.1-10.9h9.8l3.1,10.9
			H218.3z"/>
		<path class="st0" d="M228.5,133.4h21.7c0.7,0,1.3-0.3,1.7-0.9c0.4-0.5,0.5-1.2,0.4-1.9l-4.3-15.2c-0.3-0.9-1.1-1.6-2.1-1.6h-13
			c-1,0-1.8,0.6-2.1,1.6l-4.3,15.2c-0.2,0.7-0.1,1.4,0.4,1.9C227.2,133.1,227.8,133.4,228.5,133.4z M234.5,118.2h9.8l3.1,10.9h-16
			L234.5,118.2z"/>
	</g>
	<g>
		<path class="st0" d="M780.8,233.4h-2.2v-4.3c0-2.4-2-4.3-4.3-4.3h-0.8l-3.7-7.5c-0.5-1-1.7-1.5-2.8-1l-21.4,8.5h-1.8
			c-2.4,0-4.3,2-4.3,4.3v26.1c0,2.4,2,4.3,4.3,4.3h30.4c2.4,0,4.3-2,4.3-4.3v-4.3h2.2c1.2,0,2.2-1,2.2-2.2v-13
			C783,234.4,782,233.4,780.8,233.4z M766.7,221l1.9,3.8h-11.3L766.7,221z M774.3,255.2h-30.4v-26.1h30.4l0,4.3h-6.5
			c-0.6,0-1.1,0.2-1.5,0.6l-6.5,6.5c-0.8,0.8-0.8,2.2,0,3.1l6.5,6.5c0.4,0.4,1,0.6,1.5,0.6h6.5L774.3,255.2z M778.7,246.5h-10
			l-4.3-4.3l4.3-4.3h10V246.5z"/>
		<circle class="st0" cx="770" cy="242.1" r="2.2"/>
	</g>
	<g>
		<path class="st0" d="M865.7,233.4c-12,0-21.7,9.8-21.7,21.7c0,1.2,1,2.2,2.2,2.2h39.1c1.2,0,2.2-1,2.2-2.2
			C887.4,243.2,877.7,233.4,865.7,233.4z M848.4,253c1.1-8.6,8.4-15.2,17.3-15.2c8.9,0,16.2,6.7,17.3,15.2H848.4z"/>
		<path class="st0" d="M865.7,231.2c6.8,0,13.2,2.9,17.8,8l3.2-2.9c-3.2-3.5-7.1-6.1-11.5-7.7c0.8-1.1,1.3-2.4,1.3-3.9
			c0-3.6-2.9-6.5-6.5-6.5c-1.7,0-3.2,0.7-4.3,1.7c-1.2-1-2.7-1.7-4.3-1.7c-3.6,0-6.5,2.9-6.5,6.5c0,1.5,0.5,2.8,1.3,3.9
			c-4.3,1.6-8.3,4.2-11.5,7.7l3.2,2.9C852.4,234.2,858.9,231.2,865.7,231.2z M870,222.5c1.2,0,2.2,1,2.2,2.2c0,1.2-1,2.2-2.2,2.2
			c-1.2,0-2.2-1-2.2-2.2C867.8,223.5,868.8,222.5,870,222.5z M861.3,222.5c1.2,0,2.2,1,2.2,2.2c0,1.2-1,2.2-2.2,2.2
			c-1.2,0-2.2-1-2.2-2.2C859.1,223.5,860.1,222.5,861.3,222.5z"/>
	</g>
	<g>
		<path class="st0" d="M952.8,222.5c1-0.9,4.6-2.2,8.5-2.2s7.5,1.3,8.5,2.2h4.5c0-4.9-9-6.5-13-6.5s-13,1.6-13,6.5v26.1
			c0,4.9,9,6.5,13,6.5c0.6,0,1.4,0,2.2-0.1v-4.4c-0.7,0.1-1.4,0.1-2.2,0.1c-4.2,0-8-1.5-8.7-2.4v-1.5c2.9,1.2,6.5,1.7,8.7,1.7
			c0.6,0,1.4,0,2.2-0.1v-4.4c-0.7,0.1-1.4,0.1-2.2,0.1c-4.2,0-8.1-1.5-8.7-2.4v-1.5c2.9,1.2,6.5,1.7,8.7,1.7c0.6,0,1.4,0,2.2-0.1
			v-4.4c-0.7,0.1-1.4,0.1-2.2,0.1c-4.2,0-8.1-1.5-8.7-2.4v-1.5c2.9,1.2,6.5,1.7,8.7,1.7c0.6,0,1.4,0,2.2-0.1v-4.4
			c-0.7,0.1-1.4,0.1-2.2,0.1c-4.2,0-8.1-1.5-8.7-2.4v-1.5c2.9,1.2,6.5,1.7,8.7,1.7c0.6,0,1.4,0,2.2-0.1v-4.4
			c-0.7,0.1-1.4,0.1-2.2,0.1C957.5,224.7,953.9,223.4,952.8,222.5z"/>
		<path class="st0" d="M978.7,226.9c-4.1,0-13,1.6-13,6.5V253c0,4.9,9,6.5,13,6.5c4.1,0,13-1.6,13-6.5v-19.6
			C991.8,228.5,982.8,226.9,978.7,226.9z M987.4,239.7c-0.6,0.9-4.5,2.4-8.7,2.4c-4.2,0-8.1-1.5-8.7-2.4v-1.5
			c2.9,1.2,6.5,1.7,8.7,1.7c2.2,0,5.8-0.5,8.7-1.7V239.7z M987.4,246.3c-0.6,0.9-4.5,2.4-8.7,2.4c-4.2,0-8.1-1.5-8.7-2.4v-1.5
			c2.9,1.2,6.5,1.7,8.7,1.7c2.2,0,5.8-0.5,8.7-1.7V246.3z M978.7,231.2c3.9,0,7.5,1.3,8.5,2.2c-1,0.9-4.6,2.2-8.5,2.2
			c-3.9,0-7.5-1.3-8.5-2.2C971.3,232.5,974.9,231.2,978.7,231.2z M978.7,255.2c-4.2,0-8-1.5-8.7-2.4v-1.5c2.9,1.2,6.5,1.7,8.7,1.7
			c2.2,0,5.8-0.5,8.7-1.7v1.5C986.7,253.7,982.9,255.2,978.7,255.2z"/>
	</g>
	<g>
		<path class="st0" d="M41.5,333.6v-2.3h-4.3v2.2h-4.3v17.4h4.3v2.2h4.3v-2.3c2.5-0.5,4.3-2.7,4.3-5.3c0-1.2-0.4-2.3-1.1-3.3
			c0.7-0.9,1.1-2,1.1-3.3C45.8,336.3,43.9,334.1,41.5,333.6z M41.5,338.9c0,0.6-0.5,1.1-1.1,1.1h-3.3v-2.2h3.3
			C41,337.8,41.5,338.3,41.5,338.9z M40.4,346.5h-3.3v-2.2h3.3c0.6,0,1.1,0.5,1.1,1.1C41.5,346,41,346.5,40.4,346.5z"/>
		<path class="st0" d="M39.3,324.8c-6.9,0-13,4.1-15.8,10.2c-1.8-1-3.9-1.5-5.9-1.5c-7.2,0-13,5.9-13,13c0,7.2,5.9,13,13,13h21.7
			c9.6,0,17.4-7.8,17.4-17.4C56.7,332.6,48.9,324.8,39.3,324.8z M39.3,355.2H17.5c-4.8,0-8.7-3.9-8.7-8.7s3.9-8.7,8.7-8.7
			c2.6,0,4.5,1.2,5.6,2.1c0.6,0.5,1.3,0.6,2.1,0.4c0.7-0.2,1.3-0.8,1.5-1.5c1.5-5.7,6.7-9.7,12.6-9.7c7.2,0,13,5.9,13,13
			C52.3,349.3,46.5,355.2,39.3,355.2z"/>
	</g>
	<g>
		<path class="st0" d="M159.4,350.9c-0.2,0-0.4,0-0.5,0v0v-28.3c0-1.2-1-2.2-2.2-2.2h-43.5c-1.2,0-2.2,1-2.2,2.2v28.3v0
			c-0.2,0-0.3,0-0.5,0c-1.2,0.3-1.9,1.5-1.6,2.6l1.6,6.6c0.5,2.1,2.6,3.8,4.8,3.8h39.1c2.2,0,4.3-1.6,4.8-3.8l1.6-6.6
			C161.3,352.4,160.6,351.2,159.4,350.9z M115.4,324.8h39.1v26.1h-13c-0.6,0-1.1,0.2-1.5,0.6l-1.5,1.5h-6.9l-1.5-1.5
			c-0.4-0.4-1-0.6-1.5-0.6h-13V324.8z M154.6,359.5h-39.1c-0.2,0-0.5-0.3-0.6-0.5l-1-3.9h13.7l1.5,1.5c0.4,0.4,1,0.6,1.5,0.6h8.7
			c0.6,0,1.1-0.2,1.5-0.6l1.5-1.5h13.7l-1,3.9C155.1,359.3,154.7,359.5,154.6,359.5z"/>
		<path class="st0" d="M132.8,346.5v2.2h4.3v-2.3c2.5-0.5,4.3-2.7,4.3-5.3c0-1.2-0.4-2.4-1.1-3.3c0.7-0.9,1.1-2,1.1-3.3
			c0-2.6-1.9-4.8-4.3-5.3v-2.3h-4.3v2.2h-4.3v17.4H132.8z M136.1,342.2h-3.3V340h3.3c0.6,0,1.1,0.5,1.1,1.1
			C137.2,341.7,136.7,342.2,136.1,342.2z M137.2,334.5c0,0.6-0.5,1.1-1.1,1.1h-3.3v-2.2h3.3C136.7,333.5,137.2,333.9,137.2,334.5z"
			/>
	</g>
	<g>
		<path class="st0" d="M363.3,320.4h-39.1c-2.4,0-4.3,1.9-4.3,4.3v34.8c0,2.4,2,4.3,4.3,4.3h39.1c2.4,0,4.3-2,4.3-4.3v-34.8
			C367.7,322.4,365.7,320.4,363.3,320.4z M363.3,329.1h-17.4v-4.3h17.4L363.3,329.1z M335,329.1v-4.3h6.5v4.3H335z M330.7,324.8v4.3
			h-6.5v-4.3H330.7z M324.2,359.5v-26.1h39.1l0,26.1H324.2z"/>
		<path class="st0" d="M345.9,337.9v-2.3h-4.3v2.2h-4.3v17.4h4.3v2.2h4.3v-2.3c2.5-0.5,4.3-2.7,4.3-5.3c0-1.2-0.4-2.4-1.1-3.3
			c0.7-0.9,1.1-2,1.1-3.3C350.3,340.6,348.4,338.4,345.9,337.9z M345.9,343.2c0,0.6-0.5,1.1-1.1,1.1h-3.3v-2.2h3.3
			C345.4,342.1,345.9,342.6,345.9,343.2z M344.8,350.8h-3.3v-2.2h3.3c0.6,0,1.1,0.5,1.1,1.1C345.9,350.4,345.4,350.8,344.8,350.8z"
			/>
	</g>
	<g>
		<path class="st0" d="M239.4,316.1c-14.4,0-26.1,11.7-26.1,26.1c0,14.4,11.7,26.1,26.1,26.1s26.1-11.7,26.1-26.1
			C265.5,327.8,253.8,316.1,239.4,316.1z M258.2,331.3h-5.2c-0.9-1.1-5.7-8.5-6.5-9.7C251.4,323.3,255.6,326.8,258.2,331.3z
			 M226.3,342.2c0-7.2,5.9-13,13-13s13,5.9,13,13c0,7.2-5.9,13-13,13S226.3,349.3,226.3,342.2z M240.4,320.5l3.2,4.8
			c-1.4-0.3-2.8-0.6-4.3-0.6s-2.9,0.2-4.3,0.6l3.2-4.8c0.3,0,0.7-0.1,1-0.1S240.1,320.4,240.4,320.5z M232.3,321.6
			c-0.8,1.2-5.6,8.6-6.5,9.7h-5.2C223.2,326.8,227.3,323.3,232.3,321.6z M218.6,335.6h4.6c-0.8,2-1.3,4.2-1.3,6.5s0.5,4.5,1.3,6.5
			h-4.6c-0.6-2.1-1-4.3-1-6.5C217.6,339.9,218,337.7,218.6,335.6z M220.6,353h5.2c0.9,1.1,5.7,8.5,6.5,9.7
			C227.3,361,223.2,357.5,220.6,353z M238.3,363.8l-3.2-4.8c1.4,0.3,2.8,0.6,4.3,0.6s2.9-0.2,4.3-0.6l-3.2,4.8c-0.3,0-0.7,0.1-1,0.1
			S238.7,363.9,238.3,363.8z M246.4,362.7c0.8-1.2,5.6-8.6,6.5-9.7h5.2C255.6,357.5,251.4,361,246.4,362.7z M260.1,348.7h-4.6
			c0.8-2,1.3-4.2,1.3-6.5s-0.5-4.5-1.3-6.5h4.6c0.6,2.1,1,4.3,1,6.5C261.1,344.4,260.8,346.6,260.1,348.7z"/>
		<path class="st0" d="M241.5,353v-2.3c2.5-0.5,4.3-2.7,4.3-5.3c0-1.2-0.4-2.4-1.1-3.3c0.7-0.9,1.1-2,1.1-3.3c0-2.6-1.9-4.8-4.3-5.3
			v-2.3h-4.3v2.2h-4.3v17.4h4.3v2.2H241.5z M240.4,346.5h-3.3v-2.2h3.3c0.6,0,1.1,0.5,1.1,1.1C241.5,346,241,346.5,240.4,346.5z
			 M241.5,338.9c0,0.6-0.5,1.1-1.1,1.1h-3.3v-2.2h3.3C241,337.8,241.5,338.3,241.5,338.9z"/>
	</g>
	<g>
		<circle class="st0" cx="239.4" cy="446.5" r="6.5"/>
		<path class="st0" d="M261.1,444.4h-4.5c-1-7.9-7.2-14.1-15.1-15.1v-4.5h-4.3v4.5c-7.9,1-14.1,7.2-15.1,15.1h-4.5v4.3h4.5
			c1,7.9,7.2,14.1,15.1,15.1v4.5h4.3v-4.5c7.9-1,14.1-7.2,15.1-15.1h4.5V444.4z M239.4,459.6c-7.2,0-13-5.9-13-13
			c0-7.2,5.9-13,13-13s13,5.9,13,13C252.4,453.7,246.6,459.6,239.4,459.6z"/>
	</g>
	<g>
		<g>
			<path class="st0" d="M135,433.5c-3.6,0-6.5-2.9-6.5-6.5s2.9-6.5,6.5-6.5c3.6,0,6.5,2.9,6.5,6.5S138.6,433.5,135,433.5z
				 M135,424.8c-1.2,0-2.2,1-2.2,2.2c0,1.2,1,2.2,2.2,2.2c1.2,0,2.2-1,2.2-2.2C137.2,425.8,136.2,424.8,135,424.8z"/>
		</g>
		<g>
			<path class="st0" d="M139.3,463.9h-8.7c-1.2,0-2.2-1-2.2-2.2v-8.7h-2.2c-1.2,0-2.2-1-2.2-2.2v-4.3c0-6,4.9-10.9,10.9-10.9
				c6,0,10.9,4.9,10.9,10.9v4.3c0,1.2-1,2.2-2.2,2.2h-2.2v8.7C141.5,463,140.5,463.9,139.3,463.9z M132.8,459.6h4.3v-8.7
				c0-1.2,1-2.2,2.2-2.2h2.2v-2.2c0-3.6-2.9-6.5-6.5-6.5c-3.6,0-6.5,2.9-6.5,6.5v2.2h2.2c1.2,0,2.2,1,2.2,2.2V459.6z"/>
		</g>
		<g>
			<path class="st0" d="M135,472.6c-10.5,0-21.7-2.7-21.7-8.7c0-2.1,1.4-5,8.4-7l1.2,4.2c-4.3,1.2-5.2,2.6-5.2,2.8
				c0,1.1,6,4.3,17.4,4.3s17.4-3.2,17.4-4.3c0-0.2-0.8-1.5-4.9-2.7l1.3-4.2c6.6,2,8,4.9,8,6.9C156.7,469.9,145.5,472.6,135,472.6z"
				/>
		</g>
	</g>
	<g>
		<path class="st0" d="M343.7,465.2c5.2-6.3,13-17,13-25.1c0-7.2-5.9-13-13-13c-7.2,0-13,5.9-13,13
			C330.7,448.1,338.5,458.9,343.7,465.2z M343.7,431.3c4.8,0,8.7,3.9,8.7,8.7c0,5.5-5.3,13.7-8.7,18.2c-3.4-4.5-8.7-12.8-8.7-18.2
			C335,435.2,338.9,431.3,343.7,431.3z"/>
		<circle class="st0" cx="343.7" cy="440" r="4.3"/>
		<rect x="335" y="466.1" class="st0" width="17.4" height="4.3"/>
	</g>
	<g>
		<path class="st0" d="M763.5,431.3h-4.3v2.3c-2.5,0.5-4.3,2.7-4.3,5.3c0,3,2.4,5.4,5.4,5.4h2.2c0.6,0,1.1,0.5,1.1,1.1
			c0,0.6-0.5,1.1-1.1,1.1h-7.6v4.3h4.3v2.2h4.3v-2.3c2.5-0.5,4.3-2.7,4.3-5.3c0-3-2.4-5.4-5.4-5.4h-2.2c-0.6,0-1.1-0.5-1.1-1.1
			c0-0.6,0.5-1.1,1.1-1.1h7.6v-4.3h-4.3V431.3z"/>
		<path class="st0" d="M761.3,424.8c-9.6,0-17.4,7.8-17.4,17.4c0,9.6,10.1,20.5,17.4,26.8c7.3-6.3,17.4-17.2,17.4-26.8
			C778.7,432.6,770.9,424.8,761.3,424.8z M761.3,463.2c-4.6-4.3-13-13.7-13-21c0-7.2,5.9-13,13-13c7.2,0,13,5.9,13,13
			C774.3,449.4,765.9,458.8,761.3,463.2z"/>
	</g>
	<g>
		<path class="st0" d="M448.1,424.8c-9.6,0-17.4,7.8-17.4,17.4c0,9.6,10.1,20.5,17.4,26.8c7.3-6.3,17.4-17.2,17.4-26.8
			C465.5,432.6,457.7,424.8,448.1,424.8z M448.1,463.2c-4.6-4.3-13-13.7-13-21c0-7.2,5.9-13,13-13c7.2,0,13,5.9,13,13
			C461.2,449.4,452.8,458.8,448.1,463.2z"/>
		<polygon class="st0" points="450.3,433.5 446,433.5 446,440 439.4,440 439.4,444.4 446,444.4 446,450.9 450.3,450.9 450.3,444.4 
			456.8,444.4 456.8,440 450.3,440 		"/>
	</g>
	<g>
		<path class="st0" d="M552.5,424.8c-9.6,0-17.4,7.8-17.4,17.4c0,9.6,10.1,20.5,17.4,26.8c7.3-6.3,17.4-17.2,17.4-26.8
			C569.9,432.6,562.1,424.8,552.5,424.8z M552.5,463.2c-4.6-4.3-13-13.7-13-21c0-7.2,5.9-13,13-13s13,5.9,13,13
			C565.6,449.4,557.1,458.8,552.5,463.2z"/>
		<rect x="543.8" y="440" class="st0" width="17.4" height="4.3"/>
	</g>
	<g>
		<path class="st0" d="M970,424.8c-9.6,0-17.4,7.8-17.4,17.4c0,9.6,10.1,20.5,17.4,26.8c7.3-6.3,17.4-17.2,17.4-26.8
			C987.4,432.6,979.6,424.8,970,424.8z M970,463.2c-4.6-4.3-13-13.7-13-21c0-7.2,5.9-13,13-13s13,5.9,13,13
			C983.1,449.4,974.7,458.8,970,463.2z"/>
		<path class="st0" d="M970,433.5c-4.8,0-8.7,3.9-8.7,8.7v4.3h2.2v2.2c0,1.2,1,2.2,2.2,2.2h8.7c1.2,0,2.2-1,2.2-2.2v-2.2h2.2v-4.3
			C978.7,437.4,974.8,433.5,970,433.5z M965.7,444.4c-1.2,0-2.2-1-2.2-2.2s1-2.2,2.2-2.2c1.2,0,2.2,1,2.2,2.2
			S966.9,444.4,965.7,444.4z M974.4,444.4c-1.2,0-2.2-1-2.2-2.2s1-2.2,2.2-2.2c1.2,0,2.2,1,2.2,2.2S975.6,444.4,974.4,444.4z"/>
	</g>
	<g>
		<g>
			<path class="st0" d="M30.6,459.6c-0.9,0-1.6-0.5-2-1.3c-1.5-3.3-8.9-19.8-8.9-24.8c0-6,4.9-10.9,10.9-10.9
				c6,0,10.9,4.9,10.9,10.9c0,5-7.4,21.6-8.9,24.8C32.2,459.1,31.5,459.6,30.6,459.6z M30.6,427c-3.6,0-6.5,2.9-6.5,6.5
				c0,2.6,3.5,11.4,6.5,18.5c3.1-7.1,6.5-16,6.5-18.5C37.1,429.9,34.2,427,30.6,427z"/>
		</g>
		<g>
			<circle class="st0" cx="30.6" cy="433.5" r="3.3"/>
		</g>
		<g>
			<path class="st0" d="M46.9,466.1H14.3c-1.5,0-2.8-0.7-3.6-2c-0.8-1.2-0.9-2.8-0.4-4.1l4.7-10.9c0.7-1.6,2.3-2.6,4-2.6h1.8v4.3H19
				l-4.7,10.9h32.5l-4.7-10.9h-1.9v-4.3h1.9c1.7,0,3.3,1,4,2.6l4.7,10.9c0.6,1.3,0.4,2.9-0.4,4.1C49.7,465.4,48.3,466.1,46.9,466.1z
				"/>
		</g>
	</g>
	<g>
		<path class="st0" d="M872.8,436.3l-9.3,9.3l-5-5l-3.1,3.1l6.5,6.5c0.4,0.4,1,0.6,1.5,0.6c0.6,0,1.1-0.2,1.5-0.6l10.9-10.9
			L872.8,436.3z"/>
		<path class="st0" d="M865.7,424.8c-9.6,0-17.4,7.8-17.4,17.4s10.1,20.5,17.4,26.8c7.3-6.3,17.4-17.2,17.4-26.8
			C883.1,432.6,875.3,424.8,865.7,424.8z M865.7,463.2c-4.6-4.3-13-13.7-13-21c0-7.2,5.9-13,13-13c7.2,0,13,5.9,13,13
			C878.7,449.4,870.3,458.8,865.7,463.2z"/>
	</g>
	<g>
		<path class="st0" d="M656.9,424.8c-9.6,0-17.4,7.8-17.4,17.4c0,9.6,10.1,20.5,17.4,26.8c7.3-6.3,17.4-17.2,17.4-26.8
			C674.3,432.6,666.5,424.8,656.9,424.8z M656.9,463.2c-4.6-4.3-13-13.7-13-21c0-7.2,5.9-13,13-13c7.2,0,13,5.9,13,13
			C669.9,449.4,661.5,458.8,656.9,463.2z"/>
		<polygon class="st0" points="661.9,434.1 656.9,439.1 651.9,434.1 648.8,437.2 653.8,442.2 648.8,447.2 651.9,450.2 656.9,445.3 
			661.9,450.2 665,447.2 660,442.2 665,437.2 		"/>
	</g>
	<g>
		<path class="st0" d="M55.9,553.6l-5.7-4.7V540c0-1.2-1-2.2-2.2-2.2h-6.5c-1.2,0-2.1,1-2.2,2.1l-7.3-6c-0.8-0.7-2-0.7-2.8,0.1
			L7.4,553.6c-0.7,0.6-0.9,1.6-0.6,2.4c0.3,0.8,1.1,1.4,2,1.4h4.3v13c0,1.2,1,2.2,2.2,2.2H48c1.2,0,2.2-1,2.2-2.2v-13h4.3
			c0.9,0,1.7-0.6,2-1.4C56.9,555.1,56.6,554.2,55.9,553.6z M43.6,542.2h2.2v3.1l-2.2-1.8V542.2z M28.4,568.3v-8.7h-6.5v8.7h-4.3
			v-10.9h28.3v10.9H28.4z M14.5,553.1l16.1-14.5l17.8,14.5H14.5z"/>
		<rect x="32.8" y="559.6" class="st0" width="8.7" height="6.5"/>
	</g>
	<g>
		<path class="st0" d="M158.7,549.9l-6.5-13c-0.4-0.7-1.1-1.2-1.9-1.2H148v-4.3c0-1.2-1-2.2-2.2-2.2h-6.5c-1.2,0-2.2,1-2.2,2.2v4.3
			h-4.3v-4.3c0-1.2-1-2.2-2.2-2.2h-6.5c-1.2,0-2.2,1-2.2,2.2v4.3h-2.2c-0.8,0-1.6,0.5-1.9,1.2l-6.5,13c-0.3,0.7-0.3,1.5,0.1,2.1
			c0.4,0.6,1.1,1,1.8,1h4.3v17.4c0,1.2,1,2.2,2.2,2.2h30.4c1.2,0,2.2-1,2.2-2.2v-17.4h4.3c0.8,0,1.5-0.4,1.8-1
			C159,551.4,159,550.6,158.7,549.9z M141.5,533.5h2.2v2.2h-2.2V533.5z M126.3,533.5h2.2v2.2h-2.2V533.5z M139.3,568.3V564h-8.7v4.3
			h-8.7v-15.2H148v15.2H139.3z M116.8,548.7l4.3-8.7h27.8l4.3,8.7H116.8z"/>
		<rect x="124.1" y="555.3" class="st0" width="6.5" height="6.5"/>
		<rect x="139.3" y="555.3" class="st0" width="6.5" height="6.5"/>
	</g>
	<path class="st0" d="M262.1,544.6l-21.7-10.9c-0.6-0.3-1.3-0.3-1.9,0l-21.7,10.9c-0.7,0.4-1.2,1.1-1.2,1.9v4.3c0,1.2,1,2.2,2.2,2.2
		h2.2v17.4c0,1.2,1,2.2,2.2,2.2h34.8c1.2,0,2.2-1,2.2-2.2v-17.4h2.2c1.2,0,2.2-1,2.2-2.2v-4.3C263.3,545.7,262.8,545,262.1,544.6z
		 M245.9,555.3h-13v-2.2h13V555.3z M232.8,559.6h13v2.2h-13V559.6z M232.8,566.1h13v2.2h-13V566.1z M258.9,548.7h-2.2
		c-1.2,0-2.2,1-2.2,2.2v17.4h-4.3v-17.4c0-1.2-1-2.2-2.2-2.2h-17.4c-1.2,0-2.2,1-2.2,2.2v17.4h-4.3v-17.4c0-1.2-1-2.2-2.2-2.2h-2.2
		v-0.8l19.6-9.8l19.6,9.8V548.7z"/>
	<g>
		<rect x="441.6" y="540" class="st0" width="4.3" height="4.3"/>
		<rect x="450.3" y="540" class="st0" width="4.3" height="4.3"/>
		<rect x="441.6" y="548.7" class="st0" width="4.3" height="4.3"/>
		<rect x="450.3" y="548.7" class="st0" width="4.3" height="4.3"/>
		<rect x="432.9" y="557.4" class="st0" width="4.3" height="4.3"/>
		<rect x="441.6" y="557.4" class="st0" width="4.3" height="4.3"/>
		<rect x="450.3" y="557.4" class="st0" width="4.3" height="4.3"/>
		<rect x="459" y="557.4" class="st0" width="4.3" height="4.3"/>
		<path class="st0" d="M467.7,550.9h-6.5v-17.4c0-1.2-1-2.2-2.2-2.2h-4.3v-2.2c0-1.2-1-2.2-2.2-2.2h-8.7c-1.2,0-2.2,1-2.2,2.2v2.2
			h-4.3c-1.2,0-2.2,1-2.2,2.2v17.4h-6.5c-1.2,0-2.2,1-2.2,2.2v17.4c0,1.2,1,2.2,2.2,2.2h39.1c1.2,0,2.2-1,2.2-2.2v-17.4
			C469.9,551.9,468.9,550.9,467.7,550.9z M465.5,568.3h-13V564h-8.7v4.3h-13v-13h6.5c1.2,0,2.2-1,2.2-2.2v-17.4h4.3
			c1.2,0,2.2-1,2.2-2.2v-2.2h4.3v2.2c0,1.2,1,2.2,2.2,2.2h4.3v17.4c0,1.2,1,2.2,2.2,2.2h6.5V568.3z"/>
	</g>
	<g>
		<path class="st0" d="M365.5,555.3h-8.7v-10.9c0-6.5-4.7-11.8-10.9-12.9V527h-4.3v4.5c-6.2,1-10.9,6.4-10.9,12.9v10.9H322
			c-1.2,0-2.2,1-2.2,2.2v13c0,1.2,1,2.2,2.2,2.2h43.5c1.2,0,2.2-1,2.2-2.2v-13C367.7,556.2,366.7,555.3,365.5,555.3z M335,544.4
			c0-4.8,3.9-8.7,8.7-8.7c4.8,0,8.7,3.9,8.7,8.7v2.2H335V544.4z M363.3,568.3h-39.1v-8.7h8.7c1.2,0,2.2-1,2.2-2.2v-6.5h17.4v6.5
			c0,1.2,1,2.2,2.2,2.2h8.7V568.3z"/>
		<rect x="337.2" y="555.3" class="st0" width="4.3" height="4.3"/>
		<rect x="345.9" y="555.3" class="st0" width="4.3" height="4.3"/>
		<rect x="328.5" y="561.8" class="st0" width="4.3" height="4.3"/>
		<rect x="337.2" y="561.8" class="st0" width="4.3" height="4.3"/>
		<rect x="345.9" y="561.8" class="st0" width="4.3" height="4.3"/>
		<rect x="354.6" y="561.8" class="st0" width="4.3" height="4.3"/>
	</g>
	<path class="st0" d="M576.4,555.3H563l-1.3-6.6c2.2-0.2,3.9-2.1,3.9-4.3v-13h-4.3v4.3h-6.5v-4.3h-4.3v4.3h-6.5v-4.3h-4.3v13
		c0,2.2,1.7,4.1,3.9,4.3l-1.3,6.6h-13.4v4.3h2.2v10.9c0,1.2,1,2.2,2.2,2.2h15.2c1.2,0,2.2-1,2.2-2.2v-2.2c0-1.2,1-2.2,2.2-2.2
		c1.2,0,2.2,1,2.2,2.2l0,2.2c0,1.2,1,2.2,2.2,2.2h15.2c1.2,0,2.2-1,2.2-2.2v-10.9h2.2V555.3z M547.7,545.2c-0.4-0.5-1-0.8-1.7-0.8
		h-2.2V540h17.4v4.3H559c-0.7,0-1.3,0.3-1.7,0.8c-0.4,0.5-0.6,1.2-0.5,1.8l1.7,8.3h-12.1l1.7-8.3
		C548.3,546.4,548.1,545.7,547.7,545.2z M569.9,568.3H559c0-3.6-2.9-6.5-6.5-6.5c-3.6,0-6.5,2.9-6.5,6.5h-10.9v-8.7h34.8V568.3z"/>
	<path class="st0" d="M782.9,567.6l-2.2-6.5c-0.3-0.9-1.1-1.5-2.1-1.5h-2.2v-15.2h2.2c1.2,0,2.2-1,2.2-2.2v-4.3c0-0.9-0.6-1.7-1.4-2
		l-17.4-6.5c-0.5-0.2-1-0.2-1.5,0l-17.4,6.5c-0.8,0.3-1.4,1.1-1.4,2v4.3c0,1.2,1,2.2,2.2,2.2h2.2v15.2h-2.2c-0.9,0-1.8,0.6-2.1,1.5
		l-2.2,6.5c-0.2,0.7-0.1,1.4,0.3,2c0.4,0.6,1.1,0.9,1.8,0.9h39.1c0.7,0,1.4-0.3,1.8-0.9C783,569,783.1,568.3,782.9,567.6z
		 M772.2,559.6h-4.3v-15.2h4.3V559.6z M763.5,544.4v15.2h-4.3v-15.2H763.5z M746.1,539.4l15.2-5.7l15.2,5.7v0.7h-30.4V539.4z
		 M750.4,544.4h4.3v15.2h-4.3V544.4z M744.7,566.1l0.7-2.2h31.7l0.7,2.2H744.7z"/>
	<path class="st0" d="M887,538.7l-6.5-8.7c-0.4-0.5-1.1-0.9-1.7-0.9h-26.1c-0.7,0-1.3,0.3-1.7,0.9l-6.5,8.7
		c-0.5,0.7-0.6,1.5-0.2,2.3c0.4,0.7,1.1,1.2,1.9,1.2h4.3v19.6h-4.3v4.3h4.3v6.5c0,1.2,1,2.2,2.2,2.2h26.1c1.2,0,2.2-1,2.2-2.2v-6.5
		h4.3v-4.3h-4.3v-19.6h4.3c0.8,0,1.6-0.5,1.9-1.2C887.5,540.3,887.5,539.4,887,538.7z M876.5,570.5h-21.7v-4.3h21.7V570.5z
		 M876.5,561.8h-21.7v-19.6h8.7v4.3h-4.3c-0.7,0-1.3,0.3-1.7,0.8c-0.4,0.5-0.6,1.2-0.4,1.9l2.2,8.7c0.2,1,1.1,1.6,2.1,1.6h8.7
		c1,0,1.9-0.7,2.1-1.6l2.2-8.7c0.2-0.6,0-1.3-0.4-1.9c-0.4-0.5-1-0.8-1.7-0.8h-4.3v-4.3h8.7V561.8z M869.4,550.9l-1.1,4.3H863
		l-1.1-4.3H869.4z M850.4,537.9l3.3-4.3h23.9l3.3,4.3H850.4z"/>
	<g>
		<g>
			<path class="st0" d="M987.4,574.8h-34.8c-0.9,0-1.7-0.6-2.1-1.5c-0.3-0.9,0-1.8,0.7-2.4c4.9-3.9,10.1-9.4,10.1-11.4
				c0-1.2,1-2.2,2.2-2.2h13c1.2,0,2.2,1,2.2,2.2c0,2,5.2,7.5,10.1,11.4c0.7,0.6,1,1.5,0.7,2.4C989.2,574.3,988.4,574.8,987.4,574.8z
				 M958.5,570.5h23.2c-2.7-2.6-5.7-5.8-6.8-8.7h-9.6C964.1,564.7,961.2,567.9,958.5,570.5z"/>
		</g>
		<g>
			<path class="st0" d="M976.6,555.3h-4.3v-8.7c0-1.2,1-2.2,2.2-2.2h8.7c1.2,0,2.2-1,2.2-2.2c0-1.2-1-2.2-2.2-2.2h-5.5
				c-1.1,0-2-0.8-2.2-1.9c-0.4-2.7-2.7-4.7-5.3-4.7c-2.7,0-5,2-5.3,4.7c-0.2,1.1-1.1,1.9-2.2,1.9H957c-1.2,0-2.2,1-2.2,2.2
				c0,1.2,1,2.2,2.2,2.2h8.7c1.2,0,2.2,1,2.2,2.2v8.7h-4.3v-6.5H957c-3.6,0-6.5-2.9-6.5-6.5c0-3.6,2.9-6.5,6.5-6.5h3.9
				c1.4-3.8,5-6.5,9.2-6.5c4.2,0,7.8,2.7,9.2,6.5h3.9c3.6,0,6.5,2.9,6.5,6.5c0,3.6-2.9,6.5-6.5,6.5h-6.5V555.3z"/>
		</g>
	</g>
	<path class="st0" d="M41.5,659.6v-13c0.9,0,1.7-0.6,2-1.4c0.3-0.9,0.1-1.8-0.7-2.4l-13-10.9c-0.8-0.7-2-0.7-2.8,0l-13,10.9
		c-0.7,0.6-1,1.5-0.7,2.4c0.3,0.9,1.1,1.4,2,1.4v13H11v4.3h8.3l-3.2,17.4h8l4.3-5.5l4.3,5.5h8L37.6,664h8.3v-4.3H41.5z M28.4,636.4
		l7,5.9H21.4L28.4,636.4z M21.1,678.2l1.7-9.5l2.8,3.6L21.1,678.2z M24.7,664h7.5l-3.8,4.8L24.7,664z M31.2,672.4l2.8-3.6l1.7,9.5
		L31.2,672.4z M37.1,659.6H19.7v-13h17.4V659.6z"/>
	<path class="st0" d="M156.7,672.7v-15.2c0-0.8-0.5-1.6-1.2-1.9l-8.7-4.3c-0.6-0.3-1.3-0.3-1.9,0l-8.7,4.3c-0.7,0.4-1.2,1.1-1.2,1.9
		v15.2h-4.3v-27.2c0-4.2-3.4-7.6-7.6-7.6c-4.2,0-7.6,3.4-7.6,7.6v27.2h-6.5v4.3h52.2v-4.3H156.7z M126.3,659.6h-6.5v-6.5h6.5V659.6z
		 M123,642.3c1.8,0,3.3,1.5,3.3,3.3v3.3h-6.5v-3.3C119.8,643.7,121.2,642.3,123,642.3z M119.8,672.7V664h6.5v8.7H119.8z
		 M150.2,672.7v-6.5h-8.7v6.5h-2.2v-13.9l6.5-3.3l6.5,3.3v13.9H150.2z"/>
	<path class="st0" d="M361.1,661.8h-8.2c-0.7-2.1-1.4-4.3-2-6.5h3.6v-4.3h-4.7c-0.7-2.9-1.3-5.8-1.8-8.9v-2c0-0.3-0.1-0.7-0.2-1
		l-2.2-4.3c-0.7-1.5-3.2-1.5-3.9,0l-2.2,4.3c-0.2,0.3-0.2,0.6-0.2,1v2c-0.5,3-1.1,6-1.8,8.9h-4.7v4.3h3.6c-0.6,2.3-1.3,4.4-2,6.5
		h-8.2v4.3h6.6c-1.9,4.8-4,8.8-6.2,11.7c-0.5,0.7-0.6,1.5-0.2,2.3c0.4,0.7,1.1,1.2,1.9,1.2h10.9c1.2,0,2.2-1,2.2-2.2v-4.3h4.3v4.3
		c0,1.2,1,2.2,2.2,2.2H359c0.8,0,1.6-0.5,1.9-1.2c0.4-0.7,0.3-1.6-0.2-2.3c-2.2-2.9-4.3-7-6.2-11.7h6.6V661.8z M343.7,642.2
		c0,0.9,1.5,7.8,1.7,8.7h-3.3C342.3,650,343.7,643.1,343.7,642.2z M341,655.3h5.5c0.5,2.1,1.2,4.3,1.9,6.5h-9.2
		C339.8,659.6,340.5,657.4,341,655.3z M354.9,677h-4.6v-2.2c0-2.4-2-4.3-4.3-4.3h-4.3c-2.4,0-4.3,2-4.3,4.3v2.2h-4.6
		c2-3.3,3.6-7.1,5.1-10.9h12.2C351.3,670,352.9,673.7,354.9,677z"/>
	<g>
		<path class="st0" d="M258.9,657.5h-13v-5.7c2.8-1.4,4.3-4,4.3-7.3c0-5.7-8-11.5-9.6-12.7c-0.7-0.5-1.7-0.5-2.5,0
			c-1.6,1.1-9.6,7-9.6,12.7c0,3.4,1.6,5.9,4.3,7.3v5.7h-13c-1.2,0-2.2,1-2.2,2.2v15.2c0,1.2,1,2.2,2.2,2.2H235c1.2,0,2.2-1,2.2-2.2
			v-3.4l2.2-2.2l2.2,2.2l0,3.4c0,1.2,1,2.2,2.2,2.2h15.2c1.2,0,2.2-1,2.2-2.2v-15.2C261.1,658.4,260.1,657.5,258.9,657.5z
			 M239.4,636.3c3,2.4,6.5,6,6.5,8.2c0,1.1,0,4.3-6.5,4.3s-6.5-3.3-6.5-4.3C232.8,642.2,236.3,638.6,239.4,636.3z M237.2,653.1h4.3
			v4.3h-4.3V653.1z M256.8,672.7h-10.9l0-2.2c0-0.6-0.2-1.1-0.6-1.5l-4.4-4.3c-0.4-0.4-1-0.6-1.5-0.6h0c-0.6,0-1.1,0.2-1.5,0.6
			l-4.3,4.3c-0.4,0.4-0.6,1-0.6,1.5v2.2H222v-10.9h34.8V672.7z"/>
		<rect x="248.1" y="664" class="st0" width="4.3" height="4.3"/>
		<rect x="226.3" y="664" class="st0" width="4.3" height="4.3"/>
		<rect x="219.8" y="648.8" class="st0" width="4.3" height="6.5"/>
		<rect x="254.6" y="648.8" class="st0" width="4.3" height="6.5"/>
	</g>
	<path class="st0" d="M565.6,653.5c0.7,0,1.4-0.4,1.8-1l3.7-5.6h3.2v-4.3H559v-4.3c0-3.6-2.9-6.5-6.5-6.5s-6.5,2.9-6.5,6.5v4.3
		h-15.2v4.3h3.2l3.7,5.6c0.4,0.6,1.1,1,1.8,1h4.3v17.4h-2.2c-0.9,0-1.8,0.6-2.1,1.5l-2.2,6.5c-0.2,0.7-0.1,1.4,0.3,2
		c0.4,0.6,1.1,0.9,1.8,0.9h26.1c0.7,0,1.4-0.3,1.8-0.9c0.4-0.6,0.5-1.3,0.3-2l-2.2-6.5c-0.3-0.9-1.1-1.5-2.1-1.5h-2.2v-17.4H565.6z
		 M564.4,649.2h-4.1l1.9-2.2h3.6L564.4,649.2z M550.3,638.3c0-1.2,1-2.2,2.2-2.2c1.2,0,2.2,1,2.2,2.2v4.3h-4.3V638.3z M540.6,649.2
		l-1.5-2.2h17.2l-8.3,9.4v-5.1c0-1.2-1-2.2-2.2-2.2H540.6z M562.5,677.5h-20.1l0.7-2.2h18.6L562.5,677.5z M548.2,670.9v-7.9l8.7-9.9
		v17.8H548.2z"/>
	<g>
		<rect x="648.2" y="546.6" class="st0" width="17.4" height="4.3"/>
		<path class="st0" d="M669.9,529.2h-26.1c-4.8,0-8.7,3.9-8.7,8.7c0,4.8,3.9,8.7,8.7,8.7c4.8,0,8.7-3.9,8.7-8.7
			c0-1.6-0.5-3.1-1.2-4.3h11.1c-0.7,1.3-1.2,2.8-1.2,4.3c0,4.8,3.9,8.7,8.7,8.7c4.8,0,8.7-3.9,8.7-8.7
			C678.6,533.1,674.7,529.2,669.9,529.2z M643.8,542.2c-2.4,0-4.3-1.9-4.3-4.3c0-2.4,1.9-4.3,4.3-4.3c2.4,0,4.3,1.9,4.3,4.3
			C648.2,540.3,646.3,542.2,643.8,542.2z M669.9,542.2c-2.4,0-4.3-1.9-4.3-4.3c0-2.4,1.9-4.3,4.3-4.3c2.4,0,4.3,1.9,4.3,4.3
			C674.3,540.3,672.3,542.2,669.9,542.2z"/>
		<polygon class="st0" points="648.2,572.7 652.5,572.7 652.5,557.4 654.7,557.4 654.7,572.7 659.1,572.7 659.1,557.4 661.2,557.4 
			661.2,572.7 665.6,572.7 665.6,553.1 648.2,553.1 		"/>
	</g>
	<g>
		<path class="st0" d="M671.5,659.6h-8.1v-4.3h-4.3v4.3h-8.7v-8.7h4.3v-4.3h-4.3v-8.1c1.4-0.4,2.8-0.6,4.3-0.6v-4.3
			c-12,0-21.7,9.8-21.7,21.7c0,12,9.8,21.7,21.7,21.7c12,0,21.7-9.8,21.7-21.7h-4.3C672.1,656.8,671.9,658.3,671.5,659.6z
			 M646,640.3v6.3h-6.3C641.2,644,643.4,641.8,646,640.3z M637.9,650.9h8.1v8.7h-8.1c-0.4-1.4-0.6-2.8-0.6-4.3
			C637.3,653.8,637.5,652.3,637.9,650.9z M639.7,664h6.3v6.3C643.4,668.8,641.2,666.6,639.7,664z M650.4,672.1V664h8.7v8.1
			c-1.4,0.4-2.8,0.6-4.3,0.6C653.2,672.7,651.8,672.5,650.4,672.1z M663.4,670.3V664h6.3C668.2,666.6,666,668.8,663.4,670.3z"/>
		<path class="st0" d="M680.6,636.9c-0.5-1.1-1.7-1.6-2.8-1.1l-6.1,2.7l-7.2-4.6l-3.5,1.8l6.8,4.4h0.3l-5.3,2.4l-4.6-2l-3.4,2
			l8.7,4.4l4.8-2.2l-3.3,8.6l3.9-2l4.8-8.7l5.9-2.6C680.6,639.3,681.1,638,680.6,636.9z"/>
	</g>
	<g>
		<path class="st0" d="M770,648.8h-6.5v-8.7h6.5v-4.3h-17.4v4.3h6.5v8.7h-6.5c-2.4,0-4.3,1.9-4.3,4.3v19.6c0,2.4,2,4.3,4.3,4.3v2.2
			h4.3V677h8.7v2.2h4.3V677c2.4,0,4.3-2,4.3-4.3v-19.6C774.3,650.7,772.4,648.8,770,648.8z M752.6,672.7v-19.6H770l0,19.6H752.6z"/>
		<polygon class="st0" points="756.9,659.6 761.3,659.6 761.3,661.8 765.6,661.8 765.6,655.3 756.9,655.3 		"/>
	</g>
	<path class="st0" d="M887.4,668.3c-5.9,0-11,0.5-15.4,1.3l-3.1-10c1.5-2.3,3.8-4.1,6.5-4.9c2.9-0.9,6.1-0.6,8.9,0.8
		c0.7,0.4,1.6,0.3,2.3-0.2c1.1-0.8,0.9-1.8,0.6-3c-3.2-10.5-13.6-17.2-25-15l-0.7-2.2c-0.3-1.1-1.6-1.8-2.7-1.5
		c-1.1,0.3-1.8,1.6-1.5,2.7l0.7,2.2c-11.6,4.8-15.9,18.1-12.2,27.2c0.3,0.8,1.1,1.3,2,1.3c0.8,0,1.5-0.4,1.9-1.1
		c1.5-2.7,4-4.7,6.9-5.6c2.7-0.8,5.5-0.6,8.1,0.5l3,9.6c-12.8,3.1-17,7.4-21.3,10.9h43.2v-13H887.4z M855.4,656.3
		c-2.4,0.7-4.6,2-6.4,3.7c-0.6-8,4.4-15.6,12.3-18c8-2.4,16.3,1.2,20.2,8.1c-2.5-0.4-5-0.2-7.4,0.5c-3.4,1-6.3,3.1-8.4,6
		C862.4,655.3,858.8,655.2,855.4,656.3z M885.2,677h-23.7c5.1-2,13-4.1,23.7-4.3V677z"/>
	<g>
		<path class="st0" d="M957,633.6c-3.6,0-6.6,2.7-7,6.3l-3.9,34.8c-0.1,0.8,0.3,1.6,0.9,2c0.7,0.5,1.5,0.5,2.2,0.2l7.7-3.9l7.7,3.9
			c0.7,0.4,1.6,0.3,2.2-0.2c0.7-0.5,1-1.2,0.9-2l-3.9-34.8C963.6,636.2,960.6,633.6,957,633.6z M954.8,640.1c0-1.2,1-2.2,2.2-2.2
			c1.2,0,2.2,1,2.2,2.2v6.5c0,1.2-1,2.2-2.2,2.2c-1.2,0-2.2-1-2.2-2.2V640.1z M958,668.6c-0.6-0.3-1.3-0.3-1.9,0l-5.1,2.6l2.2-19.4
			c1.1,0.8,2.5,1.4,3.9,1.4s2.8-0.5,3.9-1.4l2.2,19.4L958,668.6z"/>
		<path class="st0" d="M993,633.9c-0.7-0.5-1.5-0.5-2.2-0.2l-7.7,3.9l-7.7-3.9c-0.7-0.4-1.6-0.3-2.2,0.2c-0.7,0.5-1,1.2-0.9,2
			l3.9,34.8c0.4,3.6,3.4,6.3,7,6.3s6.6-2.7,7-6.3l3.9-34.8C994,635.2,993.7,634.4,993,633.9z M982.1,642c0.6,0.3,1.3,0.3,1.9,0
			l5.1-2.6l-2.2,19.4c-1.1-0.8-2.5-1.4-3.9-1.4s-2.8,0.5-3.9,1.4l-2.2-19.4L982.1,642z M980.9,670.5V664c0-1.2,1-2.2,2.2-2.2
			c1.2,0,2.2,1,2.2,2.2v6.5c0,1.2-1,2.2-2.2,2.2C981.9,672.7,980.9,671.7,980.9,670.5z"/>
	</g>
</g>
</svg>
