<svg id="Layer_1" xmlns="http://www.w3.org/2000/svg" viewBox="0 0 1000 688"><style>.st0{fill:#404041}</style><path class="st0" d="M469.9 659.6h-4.3v-10.9c0-1.2-1-2.2-2.2-2.2h-10.9v-10.9c0-1.2-1-2.2-2.2-2.2h-23.9c-1.2 0-2.2 1-2.2 2.2v39.1c0 1.2 1 2.2 2.2 2.2h8.7c1.2 0 2.2-1 2.2-2.2v-3.3c0-.6.5-1.1 1.1-1.1.6 0 1.1.5 1.1 1.1v3.3c0 1.2 1 2.2 2.2 2.2h8.7c1.2 0 2.2-1 2.2-2.2v-3.3c0-.6.5-1.1 1.1-1.1.6 0 1.1.5 1.1 1.1v3.3c0 1.2 1 2.2 2.2 2.2h13c1.2 0 2.2-1 2.2-2.2v-13c-.2-1.1-1.1-2.1-2.3-2.1zm-8.7-8.7v8.7H459v-1.1c0-3-2.4-5.4-5.4-5.4s-5.4 2.4-5.4 5.4v1.1h-4.3v-1.1c0-3-2.4-5.4-5.4-5.4-3 0-5.4 2.4-5.4 5.4v1.1h-4.3v-8.7h6.5c1.2 0 2.2-1 2.2-2.2v-3.3c0-.6.5-1.1 1.1-1.1.6 0 1.1.5 1.1 1.1v3.3c0 1.2 1 2.2 2.2 2.2h19.3zm-32.6-13h19.6v8.7h-4.3v-1.1c0-3-2.4-5.4-5.4-5.4-3 0-5.4 2.4-5.4 5.4v1.1h-4.3v-8.7zm39.1 34.8H459v-1.1c0-3-2.4-5.4-5.4-5.4s-5.4 2.4-5.4 5.4v1.1h-4.3v-1.1c0-3-2.4-5.4-5.4-5.4-3 0-5.4 2.4-5.4 5.4v1.1h-4.3V664h6.5c1.2 0 2.2-1 2.2-2.2v-3.3c0-.6.5-1.1 1.1-1.1.6 0 1.1.5 1.1 1.1v3.3c0 1.2 1 2.2 2.2 2.2h8.7c1.2 0 2.2-1 2.2-2.2v-3.3c0-.6.5-1.1 1.1-1.1.6 0 1.1.5 1.1 1.1v3.3c0 1.2 1 2.2 2.2 2.2h10.9v8.7zm490.6-541.5h6.2l-4.3-4.3 14.3-14.3 7.8 7.8-10.9 10.9h6.2l9.3-9.3c.8-.9.8-2.2 0-3.1L976 108c-.8-.9-2.2-.9-3.1 0l-17.4 17.4c-.8.8-.8 2.2 0 3.1l2.8 2.7zm29.1 2.2h-34.8c-1.2 0-2.2 1-2.2 2.2v21.7c0 1.2 1 2.2 2.2 2.2h34.8c1.2 0 2.2-1 2.2-2.2v-21.7c0-1.2-1-2.2-2.2-2.2zm-2.1 21.7h-30.4v-17.4h30.4v17.4z"/><path class="st0" d="M967.9 153h4.3v-4.4h4.4v-4.3h-4.4v-4.4h-4.3v4.4h-4.4v4.3h4.4z"/><circle class="st0" cx="971.1" cy="123.6" r="3.3"/><path class="st0" d="M783 113.8h-26.1c-2.4 0-4.3 1.9-4.3 4.3v2.2h4.3v-2.2H783v4.3h-15.2v4.3H783v13h-26.1v-2.2h-4.3v2.2c0 2.4 2 4.3 4.3 4.3h13.9l-1.6 3.1c-.4.7-1.1 1.2-1.9 1.2h-13.8l-5.2-5.2v-11.2l5.2-5.2h7.8v2.2c0 1.2-1 2.2-2.2 2.2h-4.3v4.3h4.3c3.6 0 6.5-2.9 6.5-6.5v-4.3c0-1.2-1-2.2-2.2-2.2h-10.9c-.6 0-1.1.2-1.5.6l-4 4c-.3-.2-.6-.3-1-.3h-8.7c-1.2 0-2.2 1-2.2 2.2v17.4c0 1.2 1 2.2 2.2 2.2h8.7c.4 0 .7-.1 1-.3l4 4c.4.4 1 .6 1.5.6h14.7c2.5 0 4.7-1.4 5.8-3.6l2.5-5.1h7.4c2.4 0 4.3-2 4.3-4.3v-21.7c.2-2.3-1.8-4.3-4.2-4.3zm-39.1 30.5h-4.3v-13h4.3v13z"/><circle class="st0" cx="874.4" cy="133.4" r="4.3"/><path class="st0" d="M889.6 120.3h-3.1l-5.9-9.8c-.3-.5-.8-.9-1.4-1-.6-.1-1.2 0-1.7.4l-14.7 10.5h7.5l7.8-5.6 3.3 5.6h-9.2v4.3h15.2v17.4h-26.1v-4.3H857v6.5c0 1.2 1 2.2 2.2 2.2h15l-.5 1c-.4.7-1.1 1.2-1.9 1.2H858l-5.2-5.2v-11.2l5.2-5.2h7.8v2.2c0 1.2-1 2.2-2.2 2.2h-4.3v4.3h4.3c3.6 0 6.5-2.9 6.5-6.5V125c0-1.2-1-2.2-2.2-2.2H857c-.6 0-1.1.2-1.5.6l-4 4c-.3-.2-.6-.3-1-.3h-8.7c-1.2 0-2.2 1-2.2 2.2v17.4c0 1.2 1 2.2 2.2 2.2h8.7c.4 0 .7-.1 1-.3l4 4c.4.4 1 .6 1.5.6h14.7c2.5 0 4.7-1.4 5.8-3.6l1.5-2.9h10.6c1.2 0 2.2-1 2.2-2.2v-21.7c0-1.5-1-2.5-2.2-2.5zm-41.3 24H844v-13h4.3v13zm-184.9-30.5v2.3c-2.5.5-4.3 2.7-4.3 5.3 0 3 2.4 5.4 5.4 5.4h2.2c.6 0 1.1.5 1.1 1.1 0 .6-.5 1.1-1.1 1.1h-3.3v6.5h4.3v-2.3c2.5-.5 4.3-2.7 4.3-5.3 0-3-2.4-5.4-5.4-5.4h-2.2c-.6 0-1.1-.5-1.1-1.1 0-.6.5-1.1 1.1-1.1h7.6V116h-4.3v-2.2h-4.3z"/><path class="st0" d="M672.1 146.4c0 1.2-1 2.2-2.2 2.2H659v4.3h8.7c0 1.2-1 2.2-2.2 2.2H649l-5.2-5.2v-11.2l5.2-5.2h7.8v2.2c0 1.2-1 2.2-2.2 2.2h-4.3v4.3h4.3c3.6 0 6.5-2.9 6.5-6.5v-4.3c0-1.2-1-2.2-2.2-2.2H648c-.6 0-1.1.2-1.5.6l-4 4c-.3-.2-.6-.3-1-.3H633c-1.2 0-2.2 1-2.2 2.2V153c0 1.2 1 2.2 2.2 2.2h8.7c.4 0 .7-.1 1-.3l4 4c.4.4 1 .6 1.5.6h17.4c3.6 0 6.5-2.9 6.5-6.5v-.4c2.5-.9 4.3-3.3 4.3-6.1v-2.2h-4.3v2.1zm-32.6 4.4h-4.3v-13h4.3v13z"/><path class="st0" d="M665.6 107.3c-9.6 0-17.4 7.8-17.4 17.4 0 .7.1 1.5.2 2.2h4.4c-.1-.7-.2-1.4-.2-2.2 0-7.2 5.9-13 13-13 7.2 0 13 5.9 13 13 0 7.2-5.9 13-13 13-.7 0-1.5-.1-2.2-.2v4.4c.7.1 1.4.1 2.2.1 9.6 0 17.4-7.8 17.4-17.4 0-9.5-7.8-17.3-17.4-17.3zm-110.9 11.5v-9.3c0-.7-.3-1.4-.9-1.8-.6-.4-1.3-.5-2-.3l-5.7 1.9-3.5-1.8c-.6-.3-1.3-.3-1.9 0l-3.5 1.8-5.7-1.9c-.7-.2-1.4-.1-2 .3-.6.4-.9 1.1-.9 1.8v9.3c-1.3.8-2.2 2.1-2.2 3.7v32.6c0 2.4 2 4.3 4.3 4.3h21.7c2.4 0 4.3-2 4.3-4.3v-32.6c.2-1.6-.7-3-2-3.7zm-18.1-5.1c.5.2 1.1.1 1.7-.1l3.4-1.7 3.4 1.7c.5.3 1.1.3 1.7.1l3.7-1.2v5.7h-17.4v-5.7l3.5 1.2zm15.9 41.4h-21.7v-32.6h21.7v32.6z"/><path class="st0" d="M532.9 124.7h17.4v8.7h-17.4z"/><circle class="st0" cx="535.1" cy="137.7" r="2.2"/><circle class="st0" cx="548.2" cy="137.7" r="2.2"/><circle class="st0" cx="541.6" cy="137.7" r="2.2"/><circle class="st0" cx="535.1" cy="144.3" r="2.2"/><circle class="st0" cx="548.2" cy="144.3" r="2.2"/><circle class="st0" cx="541.6" cy="144.3" r="2.2"/><circle class="st0" cx="535.1" cy="150.8" r="2.2"/><circle class="st0" cx="548.2" cy="150.8" r="2.2"/><circle class="st0" cx="541.6" cy="150.8" r="2.2"/><path class="st0" d="M576.4 124.7h-15.2c-1.2 0-2.2 1-2.2 2.2v21.7c0 1.2 1 2.2 2.2 2.2h15.2c1.2 0 2.2-1 2.2-2.2v-21.7c0-1.2-1-2.2-2.2-2.2zm-13 4.3h2.2v17.4h-2.2V129zm10.9 17.4H570V129h4.3v17.4zm310.9 174h-39.1c-2.4 0-4.3 2-4.3 4.3v34.8c0 2.4 2 4.3 4.3 4.3h39.1c2.4 0 4.3-1.9 4.3-4.3v-34.8c.1-2.3-1.9-4.3-4.3-4.3zm0 8.7h-17.4v-4.3h17.4v4.3zm-28.2 0v-4.3h6.5v4.3H857zm-4.4-4.3v4.3h-6.5v-4.3h6.5zm-6.5 34.7v-26.1h39.1v26.1h-39.1zm143.5-39.1h-39.1c-2.4 0-4.3 2-4.3 4.3v34.8c0 2.4 2 4.3 4.3 4.3h39.1c2.4 0 4.3-1.9 4.3-4.3v-34.8c.1-2.3-1.9-4.3-4.3-4.3zm0 8.7h-17.4v-4.3h17.4v4.3zm-28.3 0v-4.3h6.5v4.3h-6.5zm-4.3-4.3v4.3h-6.5v-4.3h6.5zm-6.5 34.7v-26.1h39.1v26.1h-39.1z"/><path class="st0" d="M972.2 348.7h10.9v4.3h-10.9zm-14.6-7.2l5 5-5 5 3.1 3.1 8.1-8.1-8.1-8.1z"/><circle class="st0" cx="437.3" cy="337.8" r="4.3"/><circle class="st0" cx="448.1" cy="337.8" r="4.3"/><path class="st0" d="M465.5 326.9h-34.8c-2.4 0-4.3 2-4.3 4.3v13c0 2.4 2 4.3 4.3 4.3h17.4v-4.3h-17.4v-13h34.8v10.9h4.4v-10.9c0-2.3-2-4.3-4.4-4.3zm-8.7 27.4l-4.3-4.3-3.1 3.1 5.9 5.9c.4.4 1 .6 1.5.6.6 0 1.1-.2 1.5-.6l10.2-10.2-3.1-3.1-8.6 8.6z"/><circle class="st0" cx="541.6" cy="337.8" r="4.3"/><circle class="st0" cx="552.5" cy="337.8" r="4.3"/><path class="st0" d="M569.9 326.9h-34.8c-2.4 0-4.3 2-4.3 4.3v13c0 2.4 2 4.3 4.3 4.3h19.6v-4.3h-19.6v-13h34.8v10.9h4.4v-10.9c0-2.3-2-4.3-4.4-4.3z"/><path class="st0" d="M569.9 345.6l-4.3 4.3-4.4-4.3-3.1 3.1 4.4 4.3-4.4 4.4 3.1 3 4.4-4.3 4.3 4.3 3.1-3-4.4-4.4 4.4-4.3z"/><circle class="st0" cx="646" cy="337.8" r="4.3"/><path class="st0" d="M674.3 326.9h-34.8c-2.4 0-4.3 2-4.3 4.3v13c0 2.4 2 4.3 4.3 4.3h19.6v-4.3h-19.6v-13h34.8v4.3h4.4v-4.3c-.1-2.3-2-4.3-4.4-4.3z"/><path class="st0" d="M676.5 346.5v-1.1c0-3-2.4-5.4-5.4-5.4-3 0-5.4 2.4-5.4 5.4v1.1c-1.2 0-2.2 1-2.2 2.2v10.9c0 1.2 1 2.2 2.2 2.2h10.9c1.2 0 2.2-1 2.2-2.2v-10.9c-.2-1.2-1.1-2.2-2.3-2.2zm-6.6-1.1c0-.6.5-1.1 1.1-1.1s1.1.5 1.1 1.1v1.1h-2.2v-1.1zm4.4 12h-6.5v-6.5h6.5v6.5z"/><circle class="st0" cx="656.9" cy="337.8" r="4.3"/><path class="st0" d="M776.5 337.8h-30.4c-1.2 0-2.2 1-2.2 2.2v15.2h4.3v-13h2.2v13c0 1.2 1 2.2 2.2 2.2h2.2v6.5h4.3v-6.5h4.3v6.5h4.3v-6.5h2.2c1.2 0 2.2-1 2.2-2.2v-13h2.2v13h4.3V340c.1-1.2-.9-2.2-2.1-2.2zm-8.7 15.2h-13v-10.9h13V353zm-17.4-19.6c0 1.2 1 2.2 2.2 2.2H770c1.2 0 2.2-1 2.2-2.2 0-2.2-.7-4.3-1.8-6l3.3-3.4-3.1-3.1-3.3 3.3c-1.7-1.1-3.8-1.8-6-1.8s-4.3.7-6 1.8l-3.3-3.3-3.1 3.1 3.3 3.4c-1.1 1.8-1.8 3.8-1.8 6zm10.9-6.5c2.8 0 5.3 1.8 6.2 4.3h-12.3c.8-2.5 3.2-4.3 6.1-4.3zM55.1 222.6l-23.9-6.5c-.4-.1-.8-.1-1.1 0l-23.9 6.5c-.9.3-1.6 1.1-1.6 2.1v4.3c0 1.2 1 2.2 2.2 2.2v28.3H11v-28.3h39.1v28.3h4.3v-28.3c1.2 0 2.2-1 2.2-2.2v-4.3c.1-1-.6-1.8-1.5-2.1zm-46.3 3.8l21.7-5.9 21.7 5.9v.5H8.8v-.5z"/><path class="st0" d="M43.6 244.3h-4.3v-8.7c0-1.2-1-2.2-2.2-2.2h-13c-1.2 0-2.2 1-2.2 2.2v8.7h-4.3c-1.2 0-2.2 1-2.2 2.2v10.9c0 1.2 1 2.2 2.2 2.2h26.1c1.2 0 2.2-1 2.2-2.2v-10.9c-.1-1.2-1.1-2.2-2.3-2.2zm-17.4-6.5h2.2v4.3h4.3v-4.3h2.2v6.5h-8.7v-6.5zm-6.5 10.8h2.2v4.3h4.3v-4.3h2.2v6.5h-8.7v-6.5zm21.8 6.6h-8.7v-6.5H35v4.3h4.3v-4.3h2.2v6.5zm219.6-24c0-.3-.1-.5-.1-.7 0-.1-.1-.1-.1-.2s-.1-.2-.1-.3l-8.7-13c-.4-.6-1.1-1-1.8-1h-21.7c-.7 0-1.4.4-1.8 1l-8.7 13c-.1.1-.1.2-.1.3 0 .1-.1.1-.1.2-.1.2-.1.5-.1.7v26.1c0 1.2 1 2.2 2.2 2.2h39.1c1.2 0 2.2-1 2.2-2.2l-.2-26.1zm-6.2-2.1h-13.3v-8.7h7.5l5.8 8.7zm-25.2-8.7h7.5v8.7h-13.3l5.8-8.7zm27.1 34.8H222v-21.7h34.8v21.7zm-100.1-43.5h-30.4c-2.4 0-4.3 2-4.3 4.3v19.6h4.3V216h6.5v13c0 .9.5 1.7 1.3 2 .8.3 1.7.1 2.4-.5l5-5 5 5c.4.4 1 .6 1.5.6.3 0 .6-.1.8-.2.8-.3 1.3-1.1 1.3-2v-13h6.5V242h-15.2v4.3h15.2c2.4 0 4.3-2 4.3-4.3v-26c.2-2.4-1.8-4.3-4.2-4.3zm-10.8 12.1L143 221c-.4-.4-1-.6-1.5-.6s-1.1.2-1.5.6l-2.8 2.8V216h8.7v7.8z"/><path class="st0" d="M152.4 248.6h-16.5l.6-.6c.7-.7.8-1.7.4-2.5l-2.2-4.3c-.5-1-1.6-1.4-2.6-1.1l-10.3 3.4c-.3-.8-1.1-1.4-2-1.4h-8.7c-1.2 0-2.2 1-2.2 2.2v17.4c0 1.2 1 2.2 2.2 2.2h8.7c1.2 0 2.2-1 2.2-2.2h23.9c.7 0 1.3-.3 1.7-.9l6.5-8.7c.5-.7.6-1.5.2-2.3-.3-.7-1.1-1.2-1.9-1.2zm-39.2 10.9v-13h4.3v13h-4.3zm31.6-2.2H122V248l9.8-3.3.6 1.3-3.2 3.2c-.4.4-.6 1-.6 1.5v2.2H148l-3.2 4.4zM322 229.1h34.8v13h4.3v-15.2c0-.3-.1-.5-.1-.7 0-.1-.1-.1-.1-.2s-.1-.2-.1-.3l-8.7-13c-.4-.6-1.1-1-1.8-1h-21.7c-.7 0-1.4.4-1.8 1l-8.7 13c-.1.1-.1.2-.1.3 0 .1-.1.1-.1.2-.1.2-.1.5-.1.7V253c0 1.2 1 2.2 2.2 2.2h28.3v-4.3H322v-21.8zm32.9-4.4h-13.3V216h7.5l5.8 8.7zm-25.2-8.7h7.5v8.7h-13.3l5.8-8.7zm40.1 37h-6.5v-6.5H359v6.5h-6.6v4.3h6.6v6.6h4.3v-6.6h6.5zm56.6-23.9h34.8v19.6h4.3V227c0-.3-.1-.5-.1-.7 0-.1-.1-.1-.1-.2s-.1-.2-.1-.3l-8.7-13c-.4-.6-1.1-1-1.8-1H433c-.7 0-1.4.4-1.8 1l-8.7 13c-.1.1-.1.2-.1.3 0 .1-.1.1-.1.2-.1.2-.1.5-.1.7v26c0 1.2 1 2.2 2.2 2.2h30.4v-4.3h-28.3v-21.8zm32.9-4.4H446V216h7.5l5.8 8.7zm-25.2-8.7h7.5v8.7h-13.3l5.8-8.7zm24.9 37h13v4.3h-13zm71.8-23.9h34.8v15.2h4.3v-17.4c0-.3-.1-.5-.1-.7 0-.1-.1-.1-.1-.2s-.1-.2-.1-.3l-8.7-13c-.4-.6-1.1-1-1.8-1h-21.7c-.7 0-1.4.4-1.8 1l-8.7 13c-.1.1-.1.2-.1.3 0 .1-.1.1-.1.2-.1.2-.1.5-.1.7V253c0 1.2 1 2.2 2.2 2.2h26.1v-4.3H531v-21.8zm32.9-4.4h-13.3V216h7.5l5.8 8.7zm-25.2-8.7h7.5v8.7h-13.3l5.8-8.7zm36.4 31.1l-9.3 9.3-5-5-3.1 3.1 8.1 8.1 12.4-12.4zm103.7-24.6c0-3.6-2.9-6.5-6.5-6.5s-6.5 2.9-6.5 6.5 2.9 6.5 6.5 6.5c3.6.1 6.5-2.9 6.5-6.5zm-6.5 2.2c-1.2 0-2.2-1-2.2-2.2 0-1.2 1-2.2 2.2-2.2 1.2 0 2.2 1 2.2 2.2 0 1.2-1 2.2-2.2 2.2zm0 4.4c-6 0-10.9 4.9-10.9 10.9v6.5c0 1.2 1 2.2 2.2 2.2h2.2v8.7c0 1.2 1 2.2 2.2 2.2h8.7c1.2 0 2.2-1 2.2-2.2v-8.7h2.2c1.2 0 2.2-1 2.2-2.2V240c-.1-6.1-5-10.9-11-10.9zm6.5 15.2h-2.2c-1.2 0-2.2 1-2.2 2.2v8.7h-4.3v-8.7c0-1.2-1-2.2-2.2-2.2h-2.2V240c0-3.6 2.9-6.5 6.5-6.5s6.5 2.9 6.5 6.5v4.3zm-34.8 2.2c1.2 0 2.2-1 2.2-2.2v-13c0-1.2-1-2.2-2.2-2.2H633c-1.2 0-2.2 1-2.2 2.2v13c0 1.2 1 2.2 2.2 2.2h10.8zm-8.7-13.1h6.5v8.7h-6.5v-8.7z"/><circle class="st0" cx="652.5" cy="255.2" r="4.3"/><path class="st0" d="M650.4 224.5l-2 24.1H633v4.3h13.4c.9-2.5 3.3-4.3 6.1-4.3h.2l1.8-21.8h4.5v-4.3h-6.5c-1.1 0-2 .9-2.1 2zM51.1 44.7L39.3 30.4V16h2.2c1.2 0 2.2-1 2.2-2.2V7.3c0-1.2-1-2.2-2.2-2.2H19.7c-1.2 0-2.2 1-2.2 2.2v6.5c0 1.2 1 2.2 2.2 2.2h2.2v14.4L10 44.8c-1.4 2-1.6 4.6-.4 6.8 1.1 2.2 3.3 3.5 5.8 3.5h30.4c2.4 0 4.7-1.3 5.8-3.5 1.1-2.2 1-4.8-.5-6.9zM21.9 9.4h17.4v2.2H21.9V9.4zm3.9 23.2c.3-.4.5-.9.5-1.4V16H35v2.2h-4.3v4.3H35v2.2h-6.5V29H35v2.2c0 .5.2 1 .5 1.4l4.2 5.1H21.5l4.3-5.1zm21.9 17c-.4.7-1.1 1.2-1.9 1.2H15.4c-.8 0-1.6-.4-1.9-1.2-.4-.7-.3-1.6 0-2.1l4.5-5.4h25.3l4.3 5.3c.5.6.5 1.5.1 2.2zm110-31.2L136 7.5c-.6-.3-1.3-.3-1.9 0l-21.7 10.9c-.4.2-.8.6-1 1-.1.3-.2.7-.2.9v12.5c0 1.2 1 2.2 2.2 2.2s2.2-1 2.2-2.2v-9.3l4.3 1.7v10.7c0 .8.5 1.6 1.2 1.9 3.7 1.9 7.6 4.2 14 4.2s10.3-2.3 14-4.2c.7-.4 1.2-1.1 1.2-1.9V25.3l7.3-2.9c.8-.3 1.3-1.1 1.4-1.9-.1-1-.5-1.8-1.3-2.1zm-11.8 16.2l-2.1 1.1c-5.5 2.7-12 2.7-17.5 0l-2.1-1.1V27l10.1 4c.3.1.5.2.8.2s.5 0 .8-.2l10.1-4v7.6zM135 26.7l-16.4-6.6 16.4-8.2 16.4 8.2-16.4 6.6zm-21.8 11c-1.2 0-2.2 1-2.2 2.2v4.3c0 1.2 1 2.2 2.2 2.2s2.2-1 2.2-2.2v-4.3c0-1.2-1-2.2-2.2-2.2zM363.3 7.3h-19.6c-3.6 0-6.5 2.9-6.5 6.5v21.7h-8.7c-8.2 0-10.7 12.1-10.8 12.6-.1.6 0 1.3.5 1.8.4.5 1 .8 1.7.8h17.4c1.2 0 2.2-1 2.2-2.2h15.2c3.6 0 6.5-2.9 6.5-6.5V22.5h6.5c1.2 0 2.2-1 2.2-2.2v-6.5c-.1-3.6-3-6.5-6.6-6.5zm-28.1 39.1h-12.5c1-2.9 3-6.5 5.8-6.5h9.1c-1.4 2-2.1 4.4-2.4 6.5zm10.7-6.5c1 0 2.2 1.2 2.2 2.2 0 .8.2 1.5.4 2.2h-8.3c.8-2.3 2.4-4.4 5.7-4.4zm10.9 2.1c0 1.2-1 2.2-2.2 2.2-1.2 0-2.2-1.2-2.2-2.2 0-3.4-3.2-6.5-6.5-6.5h-4.3V13.8c0-1.2 1-2.2 2.2-2.2h13.4c-.2.7-.4 1.4-.4 2.2V42zm8.7-23.9h-4.3v-4.3c0-1.2 1-2.2 2.2-2.2s2.2 1 2.2 2.2v4.3z"/><path class="st0" d="M343.7 16h10.9v4.3h-10.9zm0 6.5h10.9v4.3h-10.9zm0 6.5h10.9v4.3h-10.9zm230.6-4.3h-7.4l-8.1-14.1-3.8 2.2 6.8 12h-18.6l6.8-12-3.8-2.2-8.1 14.1h-7.4V29h2.6l4 17.9c.2 1 1.1 1.7 2.1 1.7h26.1c1 0 1.9-.7 2.1-1.7l4-17.9h2.6v-4.3zm-10.5 19.5h-22.6L537.8 29h29.4l-3.4 15.2zm-93.9-19.5h-7.4l-8.1-14.1-3.8 2.2 6.8 12h-18.6l6.8-12-3.8-2.2-8.1 14.1h-7.4V29h2.6l4 17.9c.2 1 1.1 1.7 2.1 1.7h26.1c1 0 1.9-.7 2.1-1.7l4-17.9h2.6v-4.3zm-10.5 19.5h-22.6L433.4 29h29.4l-3.4 15.2z"/><path class="st0" d="M446 31.2h4.3v10.9H446zm6.5 0h4.3v10.9h-4.3zm-13.1 0h4.3v10.9h-4.3zm229.9 2.1l2.4-10.9h2.6v-4.3h-7.4L658.8 4 655 6.2l6.8 12h-18.6l6.8-12-3.7-2.2-8.1 14.1h-7.4v4.3h2.6l4 17.9c.2 1 1.1 1.7 2.1 1.7h19.6v-4.3h-17.8l-3.4-15.2h29.4l-2.4 10.9h4.4zM683 44.2h-6.5v-6.5h-4.4v6.5h-6.5v4.4h6.5v6.5h4.4v-6.5h6.5zm95.7-21.7v-4.3h-7.4L763.2 4l-3.8 2.2 6.8 12h-18.6l6.8-12-3.7-2.2-8.1 14.1h-7.4v4.3h2.6l4 17.9c.2 1 1.1 1.7 2.1 1.7H770c1 0 1.9-.7 2.1-1.7l4-17.9h2.6zm-10.5 15.2h-22.6l-3.4-15.2h29.4l-3.4 15.2zm3.9 6.5h13v4.3h-13zm74.5-21.7H876l-2.9 13h4.5l2.9-13h2.6v-4.3h-7.4L867.5 4l-3.8 2.2 6.8 12H852l6.8-12-3.7-2.2-8.1 14.1h-7.4v4.3h2.6l4 17.9c.2 1 1.1 1.7 2.1 1.7h19.6v-4.3H850l-3.4-15.2zM888 38.3l-9.3 9.4-5-5-3.1 3.1 8.1 8 12.4-12.4zm93.9-2.8l2.9-13h2.6v-4.3H980L971.9 4l-3.8 2.2 6.8 12h-18.6l6.8-12-3.6-2.2-8.1 14.1H944v4.3h2.6l4 17.9c.2 1 1.1 1.7 2.1 1.7h23.9v-4.3h-22.2L951 22.5h29.4l-2.9 13h4.4zm13.6 5.9l-3.1-3.1-5 5-4.9-5-3.1 3.1 5 5-5 5 3.1 3.1 4.9-5 5 5 3.1-3.1-5-5zm-736.6-1.5h-.2l-2-17.6c-.1-1.1-1.1-1.9-2.2-1.9h-4.3v-2.2h4.3c1.2 0 2.2-1 2.2-2.2V9.4c0-1.2-1-2.2-2.2-2.2h-13c-1.2 0-2.2 1-2.2 2.2V16c0 1.2 1 2.2 2.2 2.2h4.3v2.2h-8.7v-8.7c0-.8-.4-1.5-1-1.8-.6-.4-1.4-.4-2.1-.1l-3.4 1.7-3.4-1.7c-.7-.3-1.5-.3-2.1.1-.6.4-1 1.1-1 1.8v8.7c-1.1 0-2 .8-2.2 1.9l-2 17.6h-.2c-1.2 0-2.2 1-2.2 2.2v8.7c0 1.2 1 2.2 2.2 2.2h39.1c1.2 0 2.2-1 2.2-2.2V42c.1-1.2-.9-2.1-2.1-2.1zm-15.2-26.1v-2.2h8.7v2.2h-8.7zm-15.2 1.3l1.2.6c.6.3 1.3.3 1.9 0l1.2-.6v5.2h-4.3v-5.2zm-2.4 9.6h26.5l1.7 15.2h-29.9l1.7-15.2zm30.7 23.9H222v-4.3h34.8v4.3z"/><path class="st0" d="M228.5 26.8h8.7v4.3h-8.7z"/><circle class="st0" cx="241.5" cy="29" r="2.2"/><circle class="st0" cx="248.1" cy="29" r="2.2"/><circle class="st0" cx="241.5" cy="35.5" r="2.2"/><circle class="st0" cx="248.1" cy="35.5" r="2.2"/><path class="st0" d="M152.4 111.6h-34.8c-2.4 0-4.3 2-4.3 4.3v34.8c0 2.4 2 4.3 4.3 4.3v2.2h4.3V155H148v2.2h4.3V155c2.4 0 4.3-2 4.3-4.3V116c.1-2.4-1.8-4.4-4.2-4.4zm0 39.2h-34.8V116h34.8v34.8z"/><path class="st0" d="M121.9 146.4c0 1.2 1 2.2 2.2 2.2H148c1.2 0 2.2-1 2.2-2.2v-26.1c0-1.2-1-2.2-2.2-2.2h-23.9c-1.2 0-2.2 1-2.2 2.2v4.3h-2.2v4.3h2.2v8.7h-2.2v4.3h2.2v4.5zm4.4-17.4h2.2v-4.3h-2.2v-2.2h19.6v21.7h-19.6V142h2.2v-4.3h-2.2V129z"/><path class="st0" d="M137.2 139.9c3.6 0 6.5-2.9 6.5-6.5s-2.9-6.5-6.5-6.5-6.5 2.9-6.5 6.5c-.1 3.6 2.9 6.5 6.5 6.5zm0-8.7c1.2 0 2.2 1 2.2 2.2 0 1.2-1 2.2-2.2 2.2-1.2 0-2.2-1-2.2-2.2 0-1.2 1-2.2 2.2-2.2zm226.1-13h-39.1c-1.2 0-2.2 1-2.2 2.2v26.1c0 1.2 1 2.2 2.2 2.2h39.1c1.2 0 2.2-1 2.2-2.2v-26.1c0-1.3-1-2.2-2.2-2.2zm-2.2 12.1l-7.8-7.8h7.8v7.8zm-34.8 6.2l7.8 7.8h-7.8v-7.8zm14 7.8l-13.9-13.9v-7.8h20.8l13.9 13.9v7.8h-20.8z"/><path class="st0" d="M343.7 124.7c-4.8 0-8.7 3.9-8.7 8.7 0 4.8 3.9 8.7 8.7 8.7s8.7-3.9 8.7-8.7c0-4.8-3.9-8.7-8.7-8.7zm0 13c-2.4 0-4.3-2-4.3-4.3 0-2.4 2-4.3 4.3-4.3s4.3 2 4.3 4.3c.1 2.4-1.9 4.3-4.3 4.3zm121.8-26.1h-34.8c-2.4 0-4.3 2-4.3 4.3v21.7c0 2.4 2 4.3 4.3 4.3h12.1l-13 13h6.2l10-10v10h4.3v-10l10 10h6.2l-13-13h12.1c2.4 0 4.3-2 4.3-4.3V116c0-2.4-2-4.4-4.4-4.4zm0 4.4v4.3h-34.8V116h34.8zm-34.8 21.7v-13h34.8v13h-34.8zM48 120.3v-2.2h-4.3v2.2h-4.3V116c0-1.2-1-2.2-2.2-2.2h-13c-1.2 0-2.2 1-2.2 2.2v4.3h-4.3v-2.2h-4.3v2.2c-2.4 0-4.3 2-4.3 4.3v26.1c0 2.4 2 4.3 4.3 4.3H48c2.4 0 4.3-2 4.3-4.3v-26.1c0-2.3-1.9-4.3-4.3-4.3zm-21.8-2.1h8.7v2.2h-8.7v-2.2zM48 150.8H13.2v-26.1H48v26.1z"/><path class="st0" d="M32.8 126.9h-4.3v2.3c-2.5.5-4.3 2.7-4.3 5.3 0 3 2.4 5.4 5.4 5.4h2.2c.6 0 1.1.5 1.1 1.1 0 .6-.5 1.1-1.1 1.1h-7.6v4.3h4.3v2.2h4.3v-2.3c2.5-.5 4.3-2.7 4.3-5.3 0-3-2.4-5.4-5.4-5.4h-2.2c-.6 0-1.1-.5-1.1-1.1 0-.6.5-1.1 1.1-1.1h7.6V129h-4.3v-2.1zm232.6 25.5l-4.3-15.2c-.3-.9-1.1-1.6-2.1-1.6h-13c-1 0-1.8.6-2.1 1.6l-4.3 15.2c-.2.7-.1 1.4.4 1.9.4.5 1.1.9 1.7.9h21.7c.7 0 1.3-.3 1.7-.9.3-.6.5-1.3.3-1.9zm-21-1.6l3.1-10.9h9.8l3.1 10.9h-16zm-9.5-13.7c-.3-.9-1.1-1.6-2.1-1.6h-13c-1 0-1.8.6-2.1 1.6l-4.3 15.2c-.2.7-.1 1.4.4 1.9.4.5 1.1.9 1.7.9h21.7c.7 0 1.3-.3 1.7-.9.4-.5.5-1.3.4-1.9l-4.4-15.2zm-16.6 13.7l3.1-10.9h9.8l3.1 10.9h-16zm10.2-17.4h21.7c.7 0 1.3-.3 1.7-.9.4-.5.5-1.2.4-1.9l-4.3-15.2c-.3-.9-1.1-1.6-2.1-1.6h-13c-1 0-1.8.6-2.1 1.6l-4.3 15.2c-.2.7-.1 1.4.4 1.9.3.6.9.9 1.6.9zm6-15.2h9.8l3.1 10.9h-16l3.1-10.9zm546.3 115.2h-2.2v-4.3c0-2.4-2-4.3-4.3-4.3h-.8l-3.7-7.5c-.5-1-1.7-1.5-2.8-1l-21.4 8.5h-1.8c-2.4 0-4.3 2-4.3 4.3v26.1c0 2.4 2 4.3 4.3 4.3h30.4c2.4 0 4.3-2 4.3-4.3v-4.3h2.2c1.2 0 2.2-1 2.2-2.2v-13c.1-1.3-.9-2.3-2.1-2.3zM766.7 221l1.9 3.8h-11.3l9.4-3.8zm7.6 34.2h-30.4v-26.1h30.4v4.3h-6.5c-.6 0-1.1.2-1.5.6l-6.5 6.5c-.8.8-.8 2.2 0 3.1l6.5 6.5c.4.4 1 .6 1.5.6h6.5v4.5zm4.4-8.7h-10l-4.3-4.3 4.3-4.3h10v8.6z"/><circle class="st0" cx="770" cy="242.1" r="2.2"/><path class="st0" d="M865.7 233.4c-12 0-21.7 9.8-21.7 21.7 0 1.2 1 2.2 2.2 2.2h39.1c1.2 0 2.2-1 2.2-2.2-.1-11.9-9.8-21.7-21.8-21.7zM848.4 253c1.1-8.6 8.4-15.2 17.3-15.2s16.2 6.7 17.3 15.2h-34.6z"/><path class="st0" d="M865.7 231.2c6.8 0 13.2 2.9 17.8 8l3.2-2.9c-3.2-3.5-7.1-6.1-11.5-7.7.8-1.1 1.3-2.4 1.3-3.9 0-3.6-2.9-6.5-6.5-6.5-1.7 0-3.2.7-4.3 1.7-1.2-1-2.7-1.7-4.3-1.7-3.6 0-6.5 2.9-6.5 6.5 0 1.5.5 2.8 1.3 3.9-4.3 1.6-8.3 4.2-11.5 7.7l3.2 2.9c4.5-5 11-8 17.8-8zm4.3-8.7c1.2 0 2.2 1 2.2 2.2 0 1.2-1 2.2-2.2 2.2-1.2 0-2.2-1-2.2-2.2 0-1.2 1-2.2 2.2-2.2zm-8.7 0c1.2 0 2.2 1 2.2 2.2 0 1.2-1 2.2-2.2 2.2-1.2 0-2.2-1-2.2-2.2 0-1.2 1-2.2 2.2-2.2zm91.5 0c1-.9 4.6-2.2 8.5-2.2s7.5 1.3 8.5 2.2h4.5c0-4.9-9-6.5-13-6.5s-13 1.6-13 6.5v26.1c0 4.9 9 6.5 13 6.5.6 0 1.4 0 2.2-.1v-4.4c-.7.1-1.4.1-2.2.1-4.2 0-8-1.5-8.7-2.4v-1.5c2.9 1.2 6.5 1.7 8.7 1.7.6 0 1.4 0 2.2-.1V244c-.7.1-1.4.1-2.2.1-4.2 0-8.1-1.5-8.7-2.4v-1.5c2.9 1.2 6.5 1.7 8.7 1.7.6 0 1.4 0 2.2-.1v-4.4c-.7.1-1.4.1-2.2.1-4.2 0-8.1-1.5-8.7-2.4v-1.5c2.9 1.2 6.5 1.7 8.7 1.7.6 0 1.4 0 2.2-.1v-4.4c-.7.1-1.4.1-2.2.1-4.2 0-8.1-1.5-8.7-2.4V227c2.9 1.2 6.5 1.7 8.7 1.7.6 0 1.4 0 2.2-.1v-4.4c-.7.1-1.4.1-2.2.1-3.8.4-7.4-.9-8.5-1.8z"/><path class="st0" d="M978.7 226.9c-4.1 0-13 1.6-13 6.5V253c0 4.9 9 6.5 13 6.5 4.1 0 13-1.6 13-6.5v-19.6c.1-4.9-8.9-6.5-13-6.5zm8.7 12.8c-.6.9-4.5 2.4-8.7 2.4-4.2 0-8.1-1.5-8.7-2.4v-1.5c2.9 1.2 6.5 1.7 8.7 1.7 2.2 0 5.8-.5 8.7-1.7v1.5zm0 6.6c-.6.9-4.5 2.4-8.7 2.4-4.2 0-8.1-1.5-8.7-2.4v-1.5c2.9 1.2 6.5 1.7 8.7 1.7 2.2 0 5.8-.5 8.7-1.7v1.5zm-8.7-15.1c3.9 0 7.5 1.3 8.5 2.2-1 .9-4.6 2.2-8.5 2.2-3.9 0-7.5-1.3-8.5-2.2 1.1-.9 4.7-2.2 8.5-2.2zm0 24c-4.2 0-8-1.5-8.7-2.4v-1.5c2.9 1.2 6.5 1.7 8.7 1.7 2.2 0 5.8-.5 8.7-1.7v1.5c-.7.9-4.5 2.4-8.7 2.4zM41.5 333.6v-2.3h-4.3v2.2h-4.3v17.4h4.3v2.2h4.3v-2.3c2.5-.5 4.3-2.7 4.3-5.3 0-1.2-.4-2.3-1.1-3.3.7-.9 1.1-2 1.1-3.3 0-2.6-1.9-4.8-4.3-5.3zm0 5.3c0 .6-.5 1.1-1.1 1.1h-3.3v-2.2h3.3c.6 0 1.1.5 1.1 1.1zm-1.1 7.6h-3.3v-2.2h3.3c.6 0 1.1.5 1.1 1.1 0 .6-.5 1.1-1.1 1.1z"/><path class="st0" d="M39.3 324.8c-6.9 0-13 4.1-15.8 10.2-1.8-1-3.9-1.5-5.9-1.5-7.2 0-13 5.9-13 13 0 7.2 5.9 13 13 13h21.7c9.6 0 17.4-7.8 17.4-17.4 0-9.5-7.8-17.3-17.4-17.3zm0 30.4H17.5c-4.8 0-8.7-3.9-8.7-8.7s3.9-8.7 8.7-8.7c2.6 0 4.5 1.2 5.6 2.1.6.5 1.3.6 2.1.4.7-.2 1.3-.8 1.5-1.5 1.5-5.7 6.7-9.7 12.6-9.7 7.2 0 13 5.9 13 13 0 7.2-5.8 13.1-13 13.1zm120.1-4.3h-.5v-28.3c0-1.2-1-2.2-2.2-2.2h-43.5c-1.2 0-2.2 1-2.2 2.2v28.3h-.5c-1.2.3-1.9 1.5-1.6 2.6l1.6 6.6c.5 2.1 2.6 3.8 4.8 3.8h39.1c2.2 0 4.3-1.6 4.8-3.8l1.6-6.6c.5-1.1-.2-2.3-1.4-2.6zm-44-26.1h39.1v26.1h-13c-.6 0-1.1.2-1.5.6l-1.5 1.5h-6.9l-1.5-1.5c-.4-.4-1-.6-1.5-.6h-13v-26.1zm39.2 34.7h-39.1c-.2 0-.5-.3-.6-.5l-1-3.9h13.7l1.5 1.5c.4.4 1 .6 1.5.6h8.7c.6 0 1.1-.2 1.5-.6l1.5-1.5H156l-1 3.9c.1.3-.3.5-.4.5z"/><path class="st0" d="M132.8 346.5v2.2h4.3v-2.3c2.5-.5 4.3-2.7 4.3-5.3 0-1.2-.4-2.4-1.1-3.3.7-.9 1.1-2 1.1-3.3 0-2.6-1.9-4.8-4.3-5.3v-2.3h-4.3v2.2h-4.3v17.4h4.3zm3.3-4.3h-3.3V340h3.3c.6 0 1.1.5 1.1 1.1 0 .6-.5 1.1-1.1 1.1zm1.1-7.7c0 .6-.5 1.1-1.1 1.1h-3.3v-2.2h3.3c.6.1 1.1.5 1.1 1.1zm226.1-14.1h-39.1c-2.4 0-4.3 1.9-4.3 4.3v34.8c0 2.4 2 4.3 4.3 4.3h39.1c2.4 0 4.3-2 4.3-4.3v-34.8c.1-2.3-1.9-4.3-4.3-4.3zm0 8.7h-17.4v-4.3h17.4v4.3zm-28.3 0v-4.3h6.5v4.3H335zm-4.3-4.3v4.3h-6.5v-4.3h6.5zm-6.5 34.7v-26.1h39.1v26.1h-39.1z"/><path class="st0" d="M345.9 337.9v-2.3h-4.3v2.2h-4.3v17.4h4.3v2.2h4.3v-2.3c2.5-.5 4.3-2.7 4.3-5.3 0-1.2-.4-2.4-1.1-3.3.7-.9 1.1-2 1.1-3.3.1-2.6-1.8-4.8-4.3-5.3zm0 5.3c0 .6-.5 1.1-1.1 1.1h-3.3v-2.2h3.3c.6 0 1.1.5 1.1 1.1zm-1.1 7.6h-3.3v-2.2h3.3c.6 0 1.1.5 1.1 1.1 0 .7-.5 1.1-1.1 1.1zm-105.4-34.7c-14.4 0-26.1 11.7-26.1 26.1 0 14.4 11.7 26.1 26.1 26.1s26.1-11.7 26.1-26.1c0-14.4-11.7-26.1-26.1-26.1zm18.8 15.2H253c-.9-1.1-5.7-8.5-6.5-9.7 4.9 1.7 9.1 5.2 11.7 9.7zm-31.9 10.9c0-7.2 5.9-13 13-13s13 5.9 13 13c0 7.2-5.9 13-13 13s-13-5.9-13-13zm14.1-21.7l3.2 4.8c-1.4-.3-2.8-.6-4.3-.6s-2.9.2-4.3.6l3.2-4.8c.3 0 .7-.1 1-.1s.9 0 1.2.1zm-8.1 1.1c-.8 1.2-5.6 8.6-6.5 9.7h-5.2c2.6-4.5 6.7-8 11.7-9.7zm-13.7 14h4.6c-.8 2-1.3 4.2-1.3 6.5s.5 4.5 1.3 6.5h-4.6c-.6-2.1-1-4.3-1-6.5s.4-4.4 1-6.5zm2 17.4h5.2c.9 1.1 5.7 8.5 6.5 9.7-5-1.7-9.1-5.2-11.7-9.7zm17.7 10.8l-3.2-4.8c1.4.3 2.8.6 4.3.6s2.9-.2 4.3-.6l-3.2 4.8c-.3 0-.7.1-1 .1s-.8 0-1.2-.1zm8.1-1.1c.8-1.2 5.6-8.6 6.5-9.7h5.2c-2.5 4.5-6.7 8-11.7 9.7zm13.7-14h-4.6c.8-2 1.3-4.2 1.3-6.5s-.5-4.5-1.3-6.5h4.6c.6 2.1 1 4.3 1 6.5s-.3 4.4-1 6.5z"/><path class="st0" d="M241.5 353v-2.3c2.5-.5 4.3-2.7 4.3-5.3 0-1.2-.4-2.4-1.1-3.3.7-.9 1.1-2 1.1-3.3 0-2.6-1.9-4.8-4.3-5.3v-2.3h-4.3v2.2h-4.3v17.4h4.3v2.2h4.3zm-1.1-6.5h-3.3v-2.2h3.3c.6 0 1.1.5 1.1 1.1 0 .6-.5 1.1-1.1 1.1zm1.1-7.6c0 .6-.5 1.1-1.1 1.1h-3.3v-2.2h3.3c.6 0 1.1.5 1.1 1.1z"/><circle class="st0" cx="239.4" cy="446.5" r="6.5"/><path class="st0" d="M261.1 444.4h-4.5c-1-7.9-7.2-14.1-15.1-15.1v-4.5h-4.3v4.5c-7.9 1-14.1 7.2-15.1 15.1h-4.5v4.3h4.5c1 7.9 7.2 14.1 15.1 15.1v4.5h4.3v-4.5c7.9-1 14.1-7.2 15.1-15.1h4.5v-4.3zm-21.7 15.2c-7.2 0-13-5.9-13-13 0-7.2 5.9-13 13-13s13 5.9 13 13-5.8 13-13 13zM135 433.5c-3.6 0-6.5-2.9-6.5-6.5s2.9-6.5 6.5-6.5 6.5 2.9 6.5 6.5-2.9 6.5-6.5 6.5zm0-8.7c-1.2 0-2.2 1-2.2 2.2 0 1.2 1 2.2 2.2 2.2 1.2 0 2.2-1 2.2-2.2 0-1.2-1-2.2-2.2-2.2zm4.3 39.1h-8.7c-1.2 0-2.2-1-2.2-2.2V453h-2.2c-1.2 0-2.2-1-2.2-2.2v-4.3c0-6 4.9-10.9 10.9-10.9s10.9 4.9 10.9 10.9v4.3c0 1.2-1 2.2-2.2 2.2h-2.2v8.7c.1 1.3-.9 2.2-2.1 2.2zm-6.5-4.3h4.3v-8.7c0-1.2 1-2.2 2.2-2.2h2.2v-2.2c0-3.6-2.9-6.5-6.5-6.5s-6.5 2.9-6.5 6.5v2.2h2.2c1.2 0 2.2 1 2.2 2.2v8.7z"/><path class="st0" d="M135 472.6c-10.5 0-21.7-2.7-21.7-8.7 0-2.1 1.4-5 8.4-7l1.2 4.2c-4.3 1.2-5.2 2.6-5.2 2.8 0 1.1 6 4.3 17.4 4.3s17.4-3.2 17.4-4.3c0-.2-.8-1.5-4.9-2.7l1.3-4.2c6.6 2 8 4.9 8 6.9-.2 6-11.4 8.7-21.9 8.7zm208.7-7.4c5.2-6.3 13-17 13-25.1 0-7.2-5.9-13-13-13-7.2 0-13 5.9-13 13 0 8 7.8 18.8 13 25.1zm0-33.9c4.8 0 8.7 3.9 8.7 8.7 0 5.5-5.3 13.7-8.7 18.2-3.4-4.5-8.7-12.8-8.7-18.2 0-4.8 3.9-8.7 8.7-8.7z"/><circle class="st0" cx="343.7" cy="440" r="4.3"/><path class="st0" d="M335 466.1h17.4v4.3H335zm428.5-34.8h-4.3v2.3c-2.5.5-4.3 2.7-4.3 5.3 0 3 2.4 5.4 5.4 5.4h2.2c.6 0 1.1.5 1.1 1.1 0 .6-.5 1.1-1.1 1.1h-7.6v4.3h4.3v2.2h4.3v-2.3c2.5-.5 4.3-2.7 4.3-5.3 0-3-2.4-5.4-5.4-5.4h-2.2c-.6 0-1.1-.5-1.1-1.1 0-.6.5-1.1 1.1-1.1h7.6v-4.3h-4.3v-2.2z"/><path class="st0" d="M761.3 424.8c-9.6 0-17.4 7.8-17.4 17.4 0 9.6 10.1 20.5 17.4 26.8 7.3-6.3 17.4-17.2 17.4-26.8 0-9.6-7.8-17.4-17.4-17.4zm0 38.4c-4.6-4.3-13-13.7-13-21 0-7.2 5.9-13 13-13 7.2 0 13 5.9 13 13 0 7.2-8.4 16.6-13 21zm-313.2-38.4c-9.6 0-17.4 7.8-17.4 17.4 0 9.6 10.1 20.5 17.4 26.8 7.3-6.3 17.4-17.2 17.4-26.8 0-9.6-7.8-17.4-17.4-17.4zm0 38.4c-4.6-4.3-13-13.7-13-21 0-7.2 5.9-13 13-13 7.2 0 13 5.9 13 13 .1 7.2-8.3 16.6-13 21z"/><path class="st0" d="M450.3 433.5H446v6.5h-6.6v4.4h6.6v6.5h4.3v-6.5h6.5V440h-6.5zm102.2-8.7c-9.6 0-17.4 7.8-17.4 17.4 0 9.6 10.1 20.5 17.4 26.8 7.3-6.3 17.4-17.2 17.4-26.8 0-9.6-7.8-17.4-17.4-17.4zm0 38.4c-4.6-4.3-13-13.7-13-21 0-7.2 5.9-13 13-13s13 5.9 13 13c.1 7.2-8.4 16.6-13 21z"/><path class="st0" d="M543.8 440h17.4v4.3h-17.4zM970 424.8c-9.6 0-17.4 7.8-17.4 17.4 0 9.6 10.1 20.5 17.4 26.8 7.3-6.3 17.4-17.2 17.4-26.8 0-9.6-7.8-17.4-17.4-17.4zm0 38.4c-4.6-4.3-13-13.7-13-21 0-7.2 5.9-13 13-13s13 5.9 13 13c.1 7.2-8.3 16.6-13 21z"/><path class="st0" d="M970 433.5c-4.8 0-8.7 3.9-8.7 8.7v4.3h2.2v2.2c0 1.2 1 2.2 2.2 2.2h8.7c1.2 0 2.2-1 2.2-2.2v-2.2h2.2v-4.3c-.1-4.8-4-8.7-8.8-8.7zm-4.3 10.9c-1.2 0-2.2-1-2.2-2.2s1-2.2 2.2-2.2c1.2 0 2.2 1 2.2 2.2s-1 2.2-2.2 2.2zm8.7 0c-1.2 0-2.2-1-2.2-2.2s1-2.2 2.2-2.2c1.2 0 2.2 1 2.2 2.2s-1 2.2-2.2 2.2zM30.6 459.6c-.9 0-1.6-.5-2-1.3-1.5-3.3-8.9-19.8-8.9-24.8 0-6 4.9-10.9 10.9-10.9s10.9 4.9 10.9 10.9c0 5-7.4 21.6-8.9 24.8-.4.8-1.1 1.3-2 1.3zm0-32.6c-3.6 0-6.5 2.9-6.5 6.5 0 2.6 3.5 11.4 6.5 18.5 3.1-7.1 6.5-16 6.5-18.5 0-3.6-2.9-6.5-6.5-6.5z"/><circle class="st0" cx="30.6" cy="433.5" r="3.3"/><path class="st0" d="M46.9 466.1H14.3c-1.5 0-2.8-.7-3.6-2-.8-1.2-.9-2.8-.4-4.1l4.7-10.9c.7-1.6 2.3-2.6 4-2.6h1.8v4.3H19l-4.7 10.9h32.5l-4.7-10.9h-1.9v-4.3h1.9c1.7 0 3.3 1 4 2.6l4.7 10.9c.6 1.3.4 2.9-.4 4.1-.7 1.3-2.1 2-3.5 2zm825.9-29.8l-9.3 9.3-5-5-3.1 3.1 6.5 6.5c.4.4 1 .6 1.5.6.6 0 1.1-.2 1.5-.6l10.9-10.9-3-3z"/><path class="st0" d="M865.7 424.8c-9.6 0-17.4 7.8-17.4 17.4s10.1 20.5 17.4 26.8c7.3-6.3 17.4-17.2 17.4-26.8 0-9.6-7.8-17.4-17.4-17.4zm0 38.4c-4.6-4.3-13-13.7-13-21 0-7.2 5.9-13 13-13 7.2 0 13 5.9 13 13 0 7.2-8.4 16.6-13 21zm-208.8-38.4c-9.6 0-17.4 7.8-17.4 17.4 0 9.6 10.1 20.5 17.4 26.8 7.3-6.3 17.4-17.2 17.4-26.8 0-9.6-7.8-17.4-17.4-17.4zm0 38.4c-4.6-4.3-13-13.7-13-21 0-7.2 5.9-13 13-13 7.2 0 13 5.9 13 13 0 7.2-8.4 16.6-13 21z"/><path class="st0" d="M661.9 434.1l-5 5-5-5-3.1 3.1 5 5-5 5 3.1 3 5-4.9 5 4.9 3.1-3-5-5 5-5zm-606 119.5l-5.7-4.7V540c0-1.2-1-2.2-2.2-2.2h-6.5c-1.2 0-2.1 1-2.2 2.1l-7.3-6c-.8-.7-2-.7-2.8.1L7.4 553.6c-.7.6-.9 1.6-.6 2.4.3.8 1.1 1.4 2 1.4h4.3v13c0 1.2 1 2.2 2.2 2.2H48c1.2 0 2.2-1 2.2-2.2v-13h4.3c.9 0 1.7-.6 2-1.4.4-.9.1-1.8-.6-2.4zm-12.3-11.4h2.2v3.1l-2.2-1.8v-1.3zm-15.2 26.1v-8.7h-6.5v8.7h-4.3v-10.9h28.3v10.9H28.4zm-13.9-15.2l16.1-14.5 17.8 14.5H14.5z"/><path class="st0" d="M32.8 559.6h8.7v6.5h-8.7zm125.9-9.7l-6.5-13c-.4-.7-1.1-1.2-1.9-1.2H148v-4.3c0-1.2-1-2.2-2.2-2.2h-6.5c-1.2 0-2.2 1-2.2 2.2v4.3h-4.3v-4.3c0-1.2-1-2.2-2.2-2.2h-6.5c-1.2 0-2.2 1-2.2 2.2v4.3h-2.2c-.8 0-1.6.5-1.9 1.2l-6.5 13c-.3.7-.3 1.5.1 2.1.4.6 1.1 1 1.8 1h4.3v17.4c0 1.2 1 2.2 2.2 2.2h30.4c1.2 0 2.2-1 2.2-2.2V553h4.3c.8 0 1.5-.4 1.8-1 .6-.6.6-1.4.3-2.1zm-17.2-16.4h2.2v2.2h-2.2v-2.2zm-15.2 0h2.2v2.2h-2.2v-2.2zm13 34.8V564h-8.7v4.3h-8.7v-15.2H148v15.2h-8.7zm-22.5-19.6l4.3-8.7h27.8l4.3 8.7h-36.4z"/><path class="st0" d="M124.1 555.3h6.5v6.5h-6.5zm15.2 0h6.5v6.5h-6.5zm122.8-10.7l-21.7-10.9c-.6-.3-1.3-.3-1.9 0l-21.7 10.9c-.7.4-1.2 1.1-1.2 1.9v4.3c0 1.2 1 2.2 2.2 2.2h2.2v17.4c0 1.2 1 2.2 2.2 2.2H257c1.2 0 2.2-1 2.2-2.2V553h2.2c1.2 0 2.2-1 2.2-2.2v-4.3c-.3-.8-.8-1.5-1.5-1.9zm-16.2 10.7h-13v-2.2h13v2.2zm-13.1 4.3h13v2.2h-13v-2.2zm0 6.5h13v2.2h-13v-2.2zm26.1-17.4h-2.2c-1.2 0-2.2 1-2.2 2.2v17.4h-4.3v-17.4c0-1.2-1-2.2-2.2-2.2h-17.4c-1.2 0-2.2 1-2.2 2.2v17.4h-4.3v-17.4c0-1.2-1-2.2-2.2-2.2h-2.2v-.8l19.6-9.8 19.6 9.8v.8zm182.7-8.7h4.3v4.3h-4.3zm8.7 0h4.3v4.3h-4.3zm-8.7 8.7h4.3v4.3h-4.3zm8.7 0h4.3v4.3h-4.3zm-17.4 8.7h4.3v4.3h-4.3zm8.7 0h4.3v4.3h-4.3zm8.7 0h4.3v4.3h-4.3zm8.7 0h4.3v4.3H459z"/><path class="st0" d="M467.7 550.9h-6.5v-17.4c0-1.2-1-2.2-2.2-2.2h-4.3v-2.2c0-1.2-1-2.2-2.2-2.2h-8.7c-1.2 0-2.2 1-2.2 2.2v2.2h-4.3c-1.2 0-2.2 1-2.2 2.2v17.4h-6.5c-1.2 0-2.2 1-2.2 2.2v17.4c0 1.2 1 2.2 2.2 2.2h39.1c1.2 0 2.2-1 2.2-2.2v-17.4c0-1.2-1-2.2-2.2-2.2zm-2.2 17.4h-13V564h-8.7v4.3h-13v-13h6.5c1.2 0 2.2-1 2.2-2.2v-17.4h4.3c1.2 0 2.2-1 2.2-2.2v-2.2h4.3v2.2c0 1.2 1 2.2 2.2 2.2h4.3v17.4c0 1.2 1 2.2 2.2 2.2h6.5v13zm-100-13h-8.7v-10.9c0-6.5-4.7-11.8-10.9-12.9V527h-4.3v4.5c-6.2 1-10.9 6.4-10.9 12.9v10.9H322c-1.2 0-2.2 1-2.2 2.2v13c0 1.2 1 2.2 2.2 2.2h43.5c1.2 0 2.2-1 2.2-2.2v-13c0-1.3-1-2.2-2.2-2.2zM335 544.4c0-4.8 3.9-8.7 8.7-8.7 4.8 0 8.7 3.9 8.7 8.7v2.2H335v-2.2zm28.3 23.9h-39.1v-8.7h8.7c1.2 0 2.2-1 2.2-2.2v-6.5h17.4v6.5c0 1.2 1 2.2 2.2 2.2h8.7v8.7z"/><path class="st0" d="M337.2 555.3h4.3v4.3h-4.3zm8.7 0h4.3v4.3h-4.3zm-17.4 6.5h4.3v4.3h-4.3zm8.7 0h4.3v4.3h-4.3zm8.7 0h4.3v4.3h-4.3zm8.7 0h4.3v4.3h-4.3zm221.8-6.5H563l-1.3-6.6c2.2-.2 3.9-2.1 3.9-4.3v-13h-4.3v4.3h-6.5v-4.3h-4.3v4.3H544v-4.3h-4.3v13c0 2.2 1.7 4.1 3.9 4.3l-1.3 6.6h-13.4v4.3h2.2v10.9c0 1.2 1 2.2 2.2 2.2h15.2c1.2 0 2.2-1 2.2-2.2v-2.2c0-1.2 1-2.2 2.2-2.2 1.2 0 2.2 1 2.2 2.2v2.2c0 1.2 1 2.2 2.2 2.2h15.2c1.2 0 2.2-1 2.2-2.2v-10.9h2.2v-4.3zm-28.7-10.1c-.4-.5-1-.8-1.7-.8h-2.2V540h17.4v4.3H559c-.7 0-1.3.3-1.7.8-.4.5-.6 1.2-.5 1.8l1.7 8.3h-12.1l1.7-8.3c.2-.5 0-1.2-.4-1.7zm22.2 23.1H559c0-3.6-2.9-6.5-6.5-6.5s-6.5 2.9-6.5 6.5h-10.9v-8.7h34.8v8.7zm213-.7l-2.2-6.5c-.3-.9-1.1-1.5-2.1-1.5h-2.2v-15.2h2.2c1.2 0 2.2-1 2.2-2.2v-4.3c0-.9-.6-1.7-1.4-2l-17.4-6.5c-.5-.2-1-.2-1.5 0l-17.4 6.5c-.8.3-1.4 1.1-1.4 2v4.3c0 1.2 1 2.2 2.2 2.2h2.2v15.2h-2.2c-.9 0-1.8.6-2.1 1.5l-2.2 6.5c-.2.7-.1 1.4.3 2 .4.6 1.1.9 1.8.9h39.1c.7 0 1.4-.3 1.8-.9.4-.6.5-1.3.3-2zm-10.7-8h-4.3v-15.2h4.3v15.2zm-8.7-15.2v15.2h-4.3v-15.2h4.3zm-17.4-5l15.2-5.7 15.2 5.7v.7h-30.4v-.7zm4.3 5h4.3v15.2h-4.3v-15.2zm-5.7 21.7l.7-2.2h31.7l.7 2.2h-33.1zM887 538.7l-6.5-8.7c-.4-.5-1.1-.9-1.7-.9h-26.1c-.7 0-1.3.3-1.7.9l-6.5 8.7c-.5.7-.6 1.5-.2 2.3.4.7 1.1 1.2 1.9 1.2h4.3v19.6h-4.3v4.3h4.3v6.5c0 1.2 1 2.2 2.2 2.2h26.1c1.2 0 2.2-1 2.2-2.2v-6.5h4.3v-4.3H881v-19.6h4.3c.8 0 1.6-.5 1.9-1.2.3-.7.3-1.6-.2-2.3zm-10.5 31.8h-21.7v-4.3h21.7v4.3zm0-8.7h-21.7v-19.6h8.7v4.3h-4.3c-.7 0-1.3.3-1.7.8-.4.5-.6 1.2-.4 1.9l2.2 8.7c.2 1 1.1 1.6 2.1 1.6h8.7c1 0 1.9-.7 2.1-1.6l2.2-8.7c.2-.6 0-1.3-.4-1.9-.4-.5-1-.8-1.7-.8H868v-4.3h8.7v19.6zm-7.1-10.9l-1.1 4.3H863l-1.1-4.3h7.5zm-19-13l3.3-4.3h23.9l3.3 4.3h-30.5zm137 36.9h-34.8c-.9 0-1.7-.6-2.1-1.5-.3-.9 0-1.8.7-2.4 4.9-3.9 10.1-9.4 10.1-11.4 0-1.2 1-2.2 2.2-2.2h13c1.2 0 2.2 1 2.2 2.2 0 2 5.2 7.5 10.1 11.4.7.6 1 1.5.7 2.4-.3 1-1.1 1.5-2.1 1.5zm-28.9-4.3h23.2c-2.7-2.6-5.7-5.8-6.8-8.7h-9.6c-1.2 2.9-4.1 6.1-6.8 8.7zm18.1-15.2h-4.3v-8.7c0-1.2 1-2.2 2.2-2.2h8.7c1.2 0 2.2-1 2.2-2.2 0-1.2-1-2.2-2.2-2.2h-5.5c-1.1 0-2-.8-2.2-1.9-.4-2.7-2.7-4.7-5.3-4.7-2.7 0-5 2-5.3 4.7-.2 1.1-1.1 1.9-2.2 1.9H957c-1.2 0-2.2 1-2.2 2.2 0 1.2 1 2.2 2.2 2.2h8.7c1.2 0 2.2 1 2.2 2.2v8.7h-4.3v-6.5H957c-3.6 0-6.5-2.9-6.5-6.5s2.9-6.5 6.5-6.5h3.9c1.4-3.8 5-6.5 9.2-6.5 4.2 0 7.8 2.7 9.2 6.5h3.9c3.6 0 6.5 2.9 6.5 6.5s-2.9 6.5-6.5 6.5h-6.5v6.5zM41.5 659.6v-13c.9 0 1.7-.6 2-1.4.3-.9.1-1.8-.7-2.4l-13-10.9c-.8-.7-2-.7-2.8 0l-13 10.9c-.7.6-1 1.5-.7 2.4.3.9 1.1 1.4 2 1.4v13H11v4.3h8.3l-3.2 17.4h8l4.3-5.5 4.3 5.5h8L37.6 664h8.3v-4.3h-4.4zm-13.1-23.2l7 5.9h-14l7-5.9zm-7.3 41.8l1.7-9.5 2.8 3.6-4.5 5.9zm3.6-14.2h7.5l-3.8 4.8-3.7-4.8zm6.5 8.4l2.8-3.6 1.7 9.5-4.5-5.9zm5.9-12.8H19.7v-13h17.4v13zm119.6 13.1v-15.2c0-.8-.5-1.6-1.2-1.9l-8.7-4.3c-.6-.3-1.3-.3-1.9 0l-8.7 4.3c-.7.4-1.2 1.1-1.2 1.9v15.2h-4.3v-27.2c0-4.2-3.4-7.6-7.6-7.6-4.2 0-7.6 3.4-7.6 7.6v27.2H109v4.3h52.2v-4.3h-4.5zm-30.4-13.1h-6.5v-6.5h6.5v6.5zm-3.3-17.3c1.8 0 3.3 1.5 3.3 3.3v3.3h-6.5v-3.3c0-1.9 1.4-3.3 3.2-3.3zm-3.2 30.4V664h6.5v8.7h-6.5zm30.4 0v-6.5h-8.7v6.5h-2.2v-13.9l6.5-3.3 6.5 3.3v13.9h-2.1zm210.9-10.9h-8.2c-.7-2.1-1.4-4.3-2-6.5h3.6V651h-4.7c-.7-2.9-1.3-5.8-1.8-8.9v-2c0-.3-.1-.7-.2-1l-2.2-4.3c-.7-1.5-3.2-1.5-3.9 0l-2.2 4.3c-.2.3-.2.6-.2 1v2c-.5 3-1.1 6-1.8 8.9h-4.7v4.3h3.6c-.6 2.3-1.3 4.4-2 6.5h-8.2v4.3h6.6c-1.9 4.8-4 8.8-6.2 11.7-.5.7-.6 1.5-.2 2.3.4.7 1.1 1.2 1.9 1.2h10.9c1.2 0 2.2-1 2.2-2.2v-4.3h4.3v4.3c0 1.2 1 2.2 2.2 2.2H359c.8 0 1.6-.5 1.9-1.2.4-.7.3-1.6-.2-2.3-2.2-2.9-4.3-7-6.2-11.7h6.6v-4.3zm-17.4-19.6c0 .9 1.5 7.8 1.7 8.7h-3.3c.2-.9 1.6-7.8 1.6-8.7zm-2.7 13.1h5.5c.5 2.1 1.2 4.3 1.9 6.5h-9.2c.6-2.2 1.3-4.4 1.8-6.5zm13.9 21.7h-4.6v-2.2c0-2.4-2-4.3-4.3-4.3h-4.3c-2.4 0-4.3 2-4.3 4.3v2.2h-4.6c2-3.3 3.6-7.1 5.1-10.9h12.2c1.2 3.9 2.8 7.6 4.8 10.9zm-96-19.5h-13v-5.7c2.8-1.4 4.3-4 4.3-7.3 0-5.7-8-11.5-9.6-12.7-.7-.5-1.7-.5-2.5 0-1.6 1.1-9.6 7-9.6 12.7 0 3.4 1.6 5.9 4.3 7.3v5.7h-13c-1.2 0-2.2 1-2.2 2.2v15.2c0 1.2 1 2.2 2.2 2.2H235c1.2 0 2.2-1 2.2-2.2v-3.4l2.2-2.2 2.2 2.2v3.4c0 1.2 1 2.2 2.2 2.2H259c1.2 0 2.2-1 2.2-2.2v-15.2c-.1-1.3-1.1-2.2-2.3-2.2zm-19.5-21.2c3 2.4 6.5 6 6.5 8.2 0 1.1 0 4.3-6.5 4.3s-6.5-3.3-6.5-4.3c-.1-2.3 3.4-5.9 6.5-8.2zm-2.2 16.8h4.3v4.3h-4.3v-4.3zm19.6 19.6h-10.9v-2.2c0-.6-.2-1.1-.6-1.5l-4.4-4.3c-.4-.4-1-.6-1.5-.6-.6 0-1.1.2-1.5.6l-4.3 4.3c-.4.4-.6 1-.6 1.5v2.2h-11v-10.9h34.8v10.9z"/><path class="st0" d="M248.1 664h4.3v4.3h-4.3zm-21.8 0h4.3v4.3h-4.3zm-6.5-15.2h4.3v6.5h-4.3zm34.8 0h4.3v6.5h-4.3zm311 4.7c.7 0 1.4-.4 1.8-1l3.7-5.6h3.2v-4.3H559v-4.3c0-3.6-2.9-6.5-6.5-6.5s-6.5 2.9-6.5 6.5v4.3h-15.2v4.3h3.2l3.7 5.6c.4.6 1.1 1 1.8 1h4.3v17.4h-2.2c-.9 0-1.8.6-2.1 1.5l-2.2 6.5c-.2.7-.1 1.4.3 2 .4.6 1.1.9 1.8.9h26.1c.7 0 1.4-.3 1.8-.9.4-.6.5-1.3.3-2l-2.2-6.5c-.3-.9-1.1-1.5-2.1-1.5h-2.2v-17.4h4.5zm-1.2-4.3h-4.1l1.9-2.2h3.6l-1.4 2.2zm-14.1-10.9c0-1.2 1-2.2 2.2-2.2 1.2 0 2.2 1 2.2 2.2v4.3h-4.3v-4.3zm-9.7 10.9l-1.5-2.2h17.2l-8.3 9.4v-5.1c0-1.2-1-2.2-2.2-2.2h-5.2zm21.9 28.3h-20.1l.7-2.2h18.6l.8 2.2zm-14.3-6.6V663l8.7-9.9v17.8h-8.7zm100-124.3h17.4v4.3h-17.4z"/><path class="st0" d="M669.9 529.2h-26.1c-4.8 0-8.7 3.9-8.7 8.7 0 4.8 3.9 8.7 8.7 8.7 4.8 0 8.7-3.9 8.7-8.7 0-1.6-.5-3.1-1.2-4.3h11.1c-.7 1.3-1.2 2.8-1.2 4.3 0 4.8 3.9 8.7 8.7 8.7 4.8 0 8.7-3.9 8.7-8.7 0-4.8-3.9-8.7-8.7-8.7zm-26.1 13c-2.4 0-4.3-1.9-4.3-4.3s1.9-4.3 4.3-4.3 4.3 1.9 4.3 4.3c.1 2.4-1.8 4.3-4.3 4.3zm26.1 0c-2.4 0-4.3-1.9-4.3-4.3s1.9-4.3 4.3-4.3 4.3 1.9 4.3 4.3c.1 2.4-1.9 4.3-4.3 4.3zm-21.7 30.5h4.3v-15.3h2.2v15.3h4.4v-15.3h2.1v15.3h4.4v-19.6h-17.4zm23.3 86.9h-8.1v-4.3h-4.3v4.3h-8.7v-8.7h4.3v-4.3h-4.3v-8.1c1.4-.4 2.8-.6 4.3-.6v-4.3c-12 0-21.7 9.8-21.7 21.7 0 12 9.8 21.7 21.7 21.7 12 0 21.7-9.8 21.7-21.7h-4.3c0 1.5-.2 3-.6 4.3zM646 640.3v6.3h-6.3c1.5-2.6 3.7-4.8 6.3-6.3zm-8.1 10.6h8.1v8.7h-8.1c-.4-1.4-.6-2.8-.6-4.3s.2-3 .6-4.4zm1.8 13.1h6.3v6.3a17.3 17.3 0 0 1-6.3-6.3zm10.7 8.1V664h8.7v8.1c-1.4.4-2.8.6-4.3.6-1.6 0-3-.2-4.4-.6zm13-1.8V664h6.3a17.3 17.3 0 0 1-6.3 6.3z"/><path class="st0" d="M680.6 636.9c-.5-1.1-1.7-1.6-2.8-1.1l-6.1 2.7-7.2-4.6-3.5 1.8 6.8 4.4h.3l-5.3 2.4-4.6-2-3.4 2 8.7 4.4 4.8-2.2-3.3 8.6 3.9-2 4.8-8.7 5.9-2.6c1-.7 1.5-2 1-3.1zm89.4 11.9h-6.5v-8.7h6.5v-4.3h-17.4v4.3h6.5v8.7h-6.5c-2.4 0-4.3 1.9-4.3 4.3v19.6c0 2.4 2 4.3 4.3 4.3v2.2h4.3V677h8.7v2.2h4.3V677c2.4 0 4.3-2 4.3-4.3v-19.6c.1-2.4-1.8-4.3-4.2-4.3zm-17.4 23.9v-19.6H770v19.6h-17.4z"/><path class="st0" d="M756.9 659.6h4.4v2.2h4.3v-6.5h-8.7zm130.5 8.7c-5.9 0-11 .5-15.4 1.3l-3.1-10c1.5-2.3 3.8-4.1 6.5-4.9 2.9-.9 6.1-.6 8.9.8.7.4 1.6.3 2.3-.2 1.1-.8.9-1.8.6-3-3.2-10.5-13.6-17.2-25-15l-.7-2.2c-.3-1.1-1.6-1.8-2.7-1.5-1.1.3-1.8 1.6-1.5 2.7l.7 2.2c-11.6 4.8-15.9 18.1-12.2 27.2.3.8 1.1 1.3 2 1.3.8 0 1.5-.4 1.9-1.1 1.5-2.7 4-4.7 6.9-5.6 2.7-.8 5.5-.6 8.1.5l3 9.6c-12.8 3.1-17 7.4-21.3 10.9h43.2v-13h-2.2zm-32-12c-2.4.7-4.6 2-6.4 3.7-.6-8 4.4-15.6 12.3-18 8-2.4 16.3 1.2 20.2 8.1-2.5-.4-5-.2-7.4.5-3.4 1-6.3 3.1-8.4 6-3.3-1.3-6.9-1.4-10.3-.3zm29.8 20.7h-23.7c5.1-2 13-4.1 23.7-4.3v4.3zm71.8-43.4c-3.6 0-6.6 2.7-7 6.3l-3.9 34.8c-.1.8.3 1.6.9 2 .7.5 1.5.5 2.2.2l7.7-3.9 7.7 3.9c.7.4 1.6.3 2.2-.2.7-.5 1-1.2.9-2l-3.9-34.8c-.2-3.7-3.2-6.3-6.8-6.3zm-2.2 6.5c0-1.2 1-2.2 2.2-2.2 1.2 0 2.2 1 2.2 2.2v6.5c0 1.2-1 2.2-2.2 2.2-1.2 0-2.2-1-2.2-2.2v-6.5zm3.2 28.5c-.6-.3-1.3-.3-1.9 0l-5.1 2.6 2.2-19.4c1.1.8 2.5 1.4 3.9 1.4s2.8-.5 3.9-1.4l2.2 19.4-5.2-2.6zm35-34.7c-.7-.5-1.5-.5-2.2-.2l-7.7 3.9-7.7-3.9c-.7-.4-1.6-.3-2.2.2-.7.5-1 1.2-.9 2l3.9 34.8c.4 3.6 3.4 6.3 7 6.3s6.6-2.7 7-6.3l3.9-34.8c-.1-.7-.4-1.5-1.1-2zm-10.9 8.1c.6.3 1.3.3 1.9 0l5.1-2.6-2.2 19.4c-1.1-.8-2.5-1.4-3.9-1.4s-2.8.5-3.9 1.4l-2.2-19.4 5.2 2.6zm-1.2 28.5V664c0-1.2 1-2.2 2.2-2.2 1.2 0 2.2 1 2.2 2.2v6.5c0 1.2-1 2.2-2.2 2.2-1.2 0-2.2-1-2.2-2.2z"/></svg>